<svg width="280" height="90" viewBox="0 0 280 90" fill="none" xmlns="http://www.w3.org/2000/svg">
<path d="M48.1006 87.7422H69.8328C72.3277 78.8655 74.1559 59.8126 76.7951 31.0166C73.558 40.0308 66.1077 50.1383 66.1077 50.1383C66.1077 50.1383 59.1317 76.3558 48.1006 87.7422Z" fill="#009EA8"/>
<path d="M83.6307 0C83.6375 5.27349 81.3696 18.7877 79.4601 23.4278L75.6343 87.7423H83.7616L83.6307 0Z" fill="#009EA8"/>
<path d="M99.5464 31.6378H106.963V32.4298C106.385 32.4642 105.958 32.4987 105.676 32.54C105.393 32.5813 105.132 32.6915 104.877 32.8774C104.622 33.0565 104.491 33.3388 104.491 33.7176V34.4132C104.953 34.1515 105.455 33.9793 106.013 33.8967C106.571 33.814 106.984 33.7727 107.253 33.7727C107.996 33.7727 108.699 33.9036 109.367 34.1653C110.035 34.427 110.613 34.792 111.102 35.2671C111.598 35.7423 111.984 36.307 112.266 36.9613C112.549 37.6155 112.686 38.318 112.686 39.0686C112.686 40.1016 112.459 41.0727 112.005 41.9886C111.55 42.8977 110.903 43.6277 110.063 44.1786C109.222 44.7295 108.231 45.005 107.101 45.005L107.053 44.9568C106.66 44.9568 106.192 44.9086 105.634 44.8122C105.076 44.7158 104.698 44.5987 104.484 44.461V45.3976C104.484 46.0036 104.574 46.4375 104.753 46.7129C104.932 46.9884 105.18 47.1606 105.49 47.2294C105.8 47.2983 106.289 47.3465 106.95 47.3741V48.166H99.5327V47.3741C100.208 47.3465 100.703 47.3052 101.013 47.2294C101.323 47.1537 101.564 46.9884 101.743 46.7129C101.922 46.4375 102.012 45.9967 102.012 45.3907V44.5023C101.798 44.64 101.413 44.7571 100.862 44.8535C100.311 44.9499 99.8357 44.9981 99.4431 44.9981L99.3467 45.0463C98.2242 45.0463 97.2394 44.7709 96.3992 44.2199C95.559 43.669 94.9185 42.939 94.4778 42.0299C94.037 41.1209 93.8167 40.1498 93.8167 39.1099C93.8167 38.07 94.0577 37.2023 94.5466 36.3966C95.0287 35.5908 95.6899 34.9572 96.5232 34.5027C97.3564 34.0482 98.2655 33.8209 99.2503 33.8209C100.338 33.8209 101.261 34.0344 102.019 34.4614C102.019 34.4407 102.019 34.4132 101.998 34.3856C101.984 34.3512 101.977 34.3305 101.971 34.3168C101.95 33.5317 101.757 33.0289 101.385 32.8086C101.013 32.5951 100.4 32.4711 99.5464 32.4436V31.6516V31.6378ZM102.019 35.398C101.537 34.9986 100.841 34.7988 99.9459 34.7988C99.4638 34.7988 98.9679 34.8815 98.4652 35.0468C97.6044 35.4118 97.0052 35.9007 96.6746 36.5068C96.3441 37.1128 96.165 38.0081 96.1375 39.1995C96.1375 39.2201 96.1306 39.2546 96.1099 39.3028C96.0962 39.351 96.0893 39.3854 96.0893 39.3992C96.0893 40.1981 96.2132 40.9418 96.4612 41.6374C96.7091 42.3261 97.0741 42.8839 97.5562 43.3178C98.0382 43.7516 98.6029 43.972 99.2503 43.9995C99.2847 44.0064 99.3398 44.0202 99.4294 44.0271C99.5189 44.0409 99.6222 44.0478 99.7461 44.0478C100.717 44.0478 101.475 43.9031 102.019 43.607V35.4049V35.398ZM104.491 43.545C105.035 43.8411 105.772 43.9927 106.709 43.9927C106.833 43.9927 106.943 43.9927 107.046 43.972C107.149 43.9513 107.211 43.9513 107.253 43.9445C108.224 43.8894 108.988 43.4279 109.539 42.5464C110.09 41.6649 110.366 40.5975 110.366 39.351V39.1513C110.345 38.3317 110.262 37.6706 110.124 37.161C109.98 36.6514 109.746 36.2313 109.422 35.8938C109.091 35.5564 108.637 35.2603 108.052 35.0054C107.542 34.8402 107.032 34.7575 106.516 34.7575C105.655 34.7575 104.98 34.9572 104.498 35.3498V43.5519L104.491 43.545Z" fill="#009EA8"/>
<path d="M126.377 35.9417L118.182 45.3283C118.182 45.9343 118.272 46.3682 118.451 46.6437C118.63 46.9192 118.878 47.0913 119.188 47.1602C119.497 47.2291 119.986 47.2773 120.648 47.3048V48.0968H113.23V47.3048C113.905 47.2773 114.401 47.2359 114.711 47.1602C115.021 47.0913 115.262 46.9192 115.441 46.6437C115.62 46.3682 115.71 45.9275 115.71 45.3214V34.3577C115.71 33.7517 115.62 33.3178 115.434 33.0423C115.248 32.7669 115.007 32.5947 114.69 32.5258C114.381 32.457 113.892 32.4088 113.23 32.3812V31.5892H120.648V32.3812C119.821 32.3812 119.181 32.4983 118.726 32.7255C118.492 32.8495 118.347 33.0492 118.278 33.3178C118.216 33.5864 118.182 33.9376 118.182 34.3577V43.8408L126.377 34.3577C126.377 33.793 126.288 33.366 126.109 33.0905C125.93 32.8082 125.675 32.6291 125.344 32.5396C125.014 32.4501 124.539 32.4019 123.912 32.3812V31.5892H131.329V32.3812C130.461 32.3812 129.821 32.4983 129.401 32.7255C129.166 32.8495 129.022 33.0492 128.953 33.3178C128.891 33.5864 128.857 33.9376 128.857 34.3577V45.3214C128.857 45.9481 128.953 46.3958 129.146 46.6712C129.339 46.9467 129.587 47.1189 129.89 47.174C130.193 47.2291 130.675 47.2704 131.329 47.2979V48.0899H123.912V47.2979C124.552 47.2773 125.034 47.2291 125.358 47.1395C125.682 47.0569 125.937 46.8709 126.109 46.5955C126.288 46.32 126.377 45.893 126.377 45.3145V35.9279V35.9417Z" fill="#009EA8"/>
<path d="M145.206 39.8947H137.01V45.3283C137.01 45.9343 137.1 46.3682 137.279 46.6437C137.458 46.9192 137.706 47.0913 138.016 47.1602C138.326 47.2291 138.815 47.2773 139.476 47.3048V48.0968H132.066V47.3048C132.741 47.2773 133.236 47.2359 133.546 47.1602C133.856 47.0913 134.097 46.9192 134.276 46.6437C134.455 46.3682 134.545 45.9275 134.545 45.3214V34.3577C134.545 33.7517 134.455 33.3178 134.269 33.0423C134.084 32.7669 133.842 32.5947 133.526 32.5258C133.216 32.457 132.727 32.4088 132.066 32.3812V31.5892H139.476V32.3812C138.649 32.3812 138.009 32.4983 137.554 32.7255C137.32 32.8495 137.176 33.0492 137.107 33.3178C137.038 33.5864 137.01 33.9376 137.01 34.3577V38.8548H145.206V34.3577C145.206 33.793 145.116 33.366 144.937 33.0905C144.758 32.8082 144.503 32.6291 144.173 32.5396C143.842 32.4501 143.367 32.4019 142.74 32.3812V31.5892H150.157V32.3812C149.289 32.3812 148.649 32.4983 148.229 32.7255C147.995 32.8495 147.85 33.0492 147.781 33.3178C147.719 33.5864 147.685 33.9376 147.685 34.3577V45.3214C147.685 45.9481 147.781 46.3958 147.974 46.6712C148.167 46.9467 148.415 47.1189 148.718 47.174C149.021 47.2291 149.503 47.2704 150.157 47.2979V48.0899H142.74V47.2979C143.381 47.2773 143.863 47.2291 144.186 47.1395C144.51 47.05 144.765 46.8709 144.937 46.5955C145.109 46.32 145.206 45.893 145.206 45.3145V39.8809V39.8947Z" fill="#009EA8"/>
<path d="M159.984 31.3481L166.21 45.6795C166.465 46.2442 166.768 46.6574 167.119 46.9191C167.47 47.1808 167.939 47.3048 168.531 47.3048V48.0967H161.706V47.3048H162.257C163.207 47.3048 163.69 47.0568 163.69 46.561C163.69 46.3544 163.621 46.0583 163.49 45.6726L162.154 42.5047H155.584L154.296 45.6726C154.165 45.9963 154.096 46.2235 154.096 46.3613C154.096 46.988 154.606 47.3048 155.625 47.3048H156.169V48.0967H150.439V47.3048C151.197 47.3048 151.769 47.1946 152.168 46.9742C152.567 46.7538 152.891 46.32 153.153 45.6795L159.082 31.3481H159.978H159.984ZM161.658 41.4717L159.537 36.2377C159.144 35.2047 158.91 34.5436 158.841 34.2612C158.786 34.3714 158.717 34.5711 158.642 34.8604L155.976 41.4786H161.658V41.4717Z" fill="#009EA8"/>
<path d="M182.112 39.8947H173.916V45.3283C173.916 45.9343 174.006 46.3682 174.185 46.6437C174.364 46.9192 174.612 47.0913 174.922 47.1602C175.232 47.2291 175.721 47.2773 176.382 47.3048V48.0968H168.972V47.3048C169.647 47.2773 170.142 47.2359 170.452 47.1602C170.762 47.0913 171.003 46.9192 171.182 46.6437C171.361 46.3682 171.444 45.9275 171.444 45.3214V34.3577C171.444 33.7517 171.355 33.3178 171.169 33.0423C170.983 32.7669 170.742 32.5947 170.425 32.5258C170.115 32.457 169.626 32.4088 168.965 32.3812V31.5892H176.375V32.3812C175.549 32.3812 174.908 32.4983 174.454 32.7255C174.219 32.8495 174.075 33.0492 174.006 33.3178C173.937 33.5864 173.91 33.9376 173.91 34.3577V38.8548H182.105V34.3577C182.105 33.793 182.015 33.366 181.836 33.0905C181.657 32.8082 181.402 32.6291 181.072 32.5396C180.741 32.4501 180.266 32.4019 179.639 32.3812V31.5892H187.056V32.3812C186.189 32.3812 185.548 32.4983 185.128 32.7255C184.894 32.8495 184.749 33.0492 184.68 33.3178C184.618 33.5864 184.584 33.9376 184.584 34.3577V45.3214C184.584 45.9481 184.68 46.3958 184.873 46.6712C185.066 46.9467 185.314 47.1189 185.617 47.174C185.92 47.2291 186.402 47.2704 187.056 47.2979V48.0899H179.639V47.2979C180.28 47.2773 180.762 47.2291 181.086 47.1395C181.409 47.05 181.664 46.8709 181.836 46.5955C182.008 46.32 182.105 45.893 182.105 45.3145V39.8809L182.112 39.8947Z" fill="#009EA8"/>
<path d="M203.612 31.6378L203.86 37.5673H203.068C202.807 36.4861 202.428 35.5426 201.932 34.723C201.436 33.9035 200.789 33.2562 199.99 32.7879C199.191 32.3196 198.241 32.0785 197.139 32.0785C195.858 32.0785 194.79 32.4504 193.943 33.1942C193.096 33.938 192.476 34.8883 192.091 36.0453C191.705 37.2023 191.505 38.4006 191.505 39.6402C191.505 40.9831 191.726 42.2365 192.16 43.4072C192.594 44.578 193.275 45.5215 194.198 46.2377C195.121 46.9539 196.271 47.312 197.642 47.312C198.874 47.312 200.066 46.9264 201.202 46.1551C202.345 45.3837 203.151 44.4196 203.619 43.2557L204.508 43.9513C204.088 44.8948 203.488 45.7143 202.703 46.4099C201.918 47.1054 201.03 47.6357 200.031 48.0007C199.033 48.3657 198.02 48.5517 196.994 48.5517C195.789 48.5517 194.673 48.3382 193.64 47.9181C192.614 47.498 191.733 46.9057 190.989 46.1413C190.245 45.3769 189.68 44.4747 189.288 43.4279C188.888 42.3811 188.689 41.2586 188.689 40.0534C188.689 38.8482 188.888 37.7326 189.288 36.6651C189.687 35.5977 190.259 34.6473 191.003 33.8278C191.746 33.0082 192.635 32.3609 193.675 31.8995C194.708 31.4381 195.83 31.2039 197.042 31.2039C198.971 31.2039 200.747 31.7617 202.38 32.8843C202.531 32.6432 202.71 32.2369 202.924 31.6516H203.619L203.612 31.6378Z" fill="#009EA8"/>
<path d="M214.383 48.5447C212.758 48.5447 211.277 48.1728 209.941 47.4221C208.605 46.6715 207.551 45.6316 206.787 44.3024C206.022 42.9733 205.637 41.4858 205.637 39.8467C205.637 38.2077 206.015 36.6995 206.773 35.3772C207.531 34.055 208.577 33.0288 209.913 32.2919C211.249 31.5551 212.737 31.1901 214.383 31.1901C216.029 31.1901 217.551 31.5551 218.894 32.2919C220.237 33.0288 221.283 34.055 222.041 35.3772C222.798 36.6995 223.184 38.187 223.184 39.8467C223.184 41.5064 222.799 42.9802 222.034 44.3093C221.27 45.6385 220.209 46.6784 218.859 47.4221C217.509 48.1728 216.022 48.5447 214.383 48.5447ZM214.383 47.6563C215.815 47.6563 216.972 47.2913 217.854 46.5544C218.735 45.8175 219.369 44.8672 219.748 43.6964C220.126 42.5257 220.312 41.2447 220.312 39.8536C220.312 38.8137 220.209 37.8358 220.009 36.913C219.81 35.9901 219.479 35.1568 219.025 34.42C218.57 33.6762 217.957 33.0839 217.186 32.6501C216.414 32.2093 215.478 31.9889 214.383 31.9889C213.288 31.9889 212.379 32.2093 211.614 32.6501C210.85 33.0908 210.244 33.6762 209.789 34.42C209.335 35.1637 209.011 35.997 208.805 36.9198C208.598 37.8427 208.502 38.8206 208.502 39.8536C208.502 41.2516 208.688 42.5394 209.066 43.7102C209.438 44.8809 210.065 45.8313 210.94 46.5682C211.814 47.2982 212.964 47.6632 214.383 47.6632V47.6563Z" fill="#009EA8"/>
<path d="M232.468 39.151C233.391 39.1923 234.251 39.3783 235.057 39.7157C235.863 40.0532 236.51 40.549 237.013 41.2101C237.509 41.8713 237.764 42.6701 237.764 43.6067C237.764 44.4951 237.543 45.2802 237.103 45.9689C236.662 46.6576 236.069 47.181 235.319 47.546C234.568 47.911 233.749 48.0969 232.867 48.0969H224.465V47.3049C225.14 47.2774 225.636 47.2361 225.946 47.1603C226.256 47.0914 226.497 46.9193 226.676 46.6438C226.855 46.3683 226.945 45.9276 226.945 45.3215V34.3578C226.945 33.7518 226.855 33.311 226.676 33.0356C226.497 32.7601 226.256 32.5879 225.946 32.5191C225.636 32.4502 225.14 32.402 224.465 32.3744V31.5825H232.468C233.225 31.5825 233.948 31.7202 234.623 31.9957C235.298 32.2711 235.842 32.6843 236.255 33.2353C236.669 33.7862 236.868 34.4542 236.868 35.2393C236.868 36.4445 236.462 37.3536 235.643 37.9665C234.823 38.5794 233.769 38.9719 232.461 39.1441L232.468 39.151ZM229.403 38.8549C230.471 38.8549 231.325 38.7929 231.965 38.6758C232.605 38.5587 233.136 38.2626 233.535 37.8012C233.935 37.3398 234.141 36.6167 234.141 35.6456C234.141 34.5782 233.935 33.7724 233.521 33.2353C233.108 32.6981 232.392 32.4295 231.373 32.4295H229.403V38.8549ZM229.403 39.6468V45.3284C229.403 46.0653 229.61 46.5611 230.016 46.8228C230.422 47.0845 231.028 47.2085 231.82 47.2085C232.929 47.2085 233.728 46.8435 234.21 46.1135C234.692 45.3835 234.933 44.4331 234.933 43.2486C234.933 42.133 234.692 41.3066 234.203 40.7832C233.714 40.2598 233.108 39.9361 232.378 39.819C231.648 39.7019 230.657 39.64 229.403 39.64V39.6468Z" fill="#009EA8"/>
<path d="M244.375 34.3645V38.8616C245.057 38.8616 245.539 38.8616 245.821 38.8547C246.11 38.8547 246.331 38.8409 246.496 38.8271C246.661 38.8202 246.792 38.8134 246.889 38.8134C248.073 38.8134 249.106 39.0131 249.974 39.4056C250.842 39.7982 251.517 40.3629 251.985 41.086C252.453 41.8091 252.701 42.6493 252.715 43.6065C252.715 44.4949 252.494 45.28 252.054 45.9687C251.613 46.6574 251.021 47.1808 250.27 47.5458C249.519 47.9108 248.7 48.0967 247.818 48.0967H239.417V47.2978C240.091 47.2703 240.587 47.229 240.897 47.1532C241.207 47.0844 241.448 46.9122 241.627 46.6367C241.806 46.3612 241.889 45.9205 241.889 45.3145V34.3507C241.889 33.7447 241.799 33.304 241.627 33.0285C241.448 32.753 241.207 32.5808 240.897 32.512C240.587 32.4431 240.098 32.3949 239.417 32.3674V31.5754H246.827V32.3674C246 32.3674 245.374 32.4844 244.953 32.7117C244.699 32.8357 244.533 33.0354 244.465 33.304C244.396 33.5725 244.361 33.9238 244.361 34.3439L244.375 34.3645ZM244.375 39.6949V45.3213C244.375 46.0582 244.582 46.5541 244.988 46.8158C245.394 47.0775 246 47.2014 246.792 47.2014C247.901 47.2014 248.7 46.8364 249.182 46.1133C249.664 45.3833 249.905 44.433 249.905 43.2484C249.905 42.2016 249.698 41.4234 249.285 40.9C248.872 40.3767 248.335 40.0461 247.681 39.9084C247.019 39.7637 246.179 39.6949 245.167 39.6949H244.375ZM260.979 48.1449H253.569V47.3461C254.244 47.3254 254.733 47.2772 255.043 47.2014C255.352 47.1326 255.593 46.9604 255.773 46.6849C255.952 46.4095 256.034 45.9687 256.034 45.3627V34.3989C256.034 33.7929 255.945 33.359 255.773 33.0836C255.593 32.8081 255.352 32.6359 255.043 32.5671C254.733 32.4982 254.244 32.45 253.569 32.4225V31.6305H260.979V32.4225C260.153 32.4225 259.526 32.5395 259.106 32.7668C258.844 32.8976 258.679 33.0974 258.61 33.3728C258.541 33.6483 258.507 33.9857 258.507 34.4058V45.3695C258.507 45.9756 258.596 46.4095 258.782 46.6849C258.968 46.9604 259.209 47.1326 259.526 47.2014C259.836 47.2703 260.325 47.3185 260.986 47.3461V48.1449H260.979Z" fill="#009EA8"/>
<path d="M275.056 35.9418L266.86 45.3284C266.86 45.9344 266.95 46.3683 267.129 46.6438C267.308 46.9193 267.556 47.0914 267.866 47.1603C268.176 47.2292 268.665 47.2774 269.326 47.3049V48.0969H261.916V47.3049C262.59 47.2774 263.086 47.236 263.396 47.1603C263.706 47.0914 263.947 46.9193 264.126 46.6438C264.305 46.3683 264.388 45.9276 264.388 45.3215V34.3578C264.388 33.7518 264.298 33.3179 264.112 33.0424C263.927 32.767 263.685 32.5948 263.369 32.5259C263.059 32.4571 262.57 32.4089 261.909 32.3813V31.5893H269.319V32.3813C268.492 32.3813 267.852 32.4984 267.397 32.7256C267.163 32.8496 267.019 33.0493 266.95 33.3179C266.881 33.5865 266.853 33.9377 266.853 34.3578V43.8409L275.049 34.3578C275.049 33.7931 274.959 33.3661 274.78 33.0906C274.601 32.8083 274.346 32.6292 274.016 32.5397C273.685 32.4502 273.21 32.402 272.583 32.3813V31.5893H280V32.3813C279.132 32.3813 278.492 32.4984 278.072 32.7256C277.838 32.8496 277.693 33.0493 277.624 33.3179C277.562 33.5865 277.528 33.9377 277.528 34.3578V45.3215C277.528 45.9482 277.624 46.3959 277.817 46.6713C278.01 46.9468 278.258 47.119 278.561 47.1741C278.864 47.2292 279.346 47.2705 280 47.298V48.09H272.583V47.298C273.224 47.2774 273.706 47.2292 274.029 47.1396C274.353 47.0501 274.608 46.871 274.78 46.5956C274.952 46.3201 275.049 45.8931 275.049 45.3146V35.928L275.056 35.9418ZM271.302 28.5316C271.798 28.5316 272.28 28.4627 272.762 28.3181C273.237 28.1735 273.478 27.9325 273.478 27.5881C273.382 27.0923 273.334 26.7617 273.334 26.5964C273.334 26.2796 273.451 26.0042 273.678 25.7631C273.912 25.5221 274.188 25.3913 274.511 25.3637H274.615C274.821 25.3637 275.042 25.4119 275.262 25.5083C275.482 25.6047 275.648 25.7012 275.751 25.8045C275.978 26.073 276.095 26.438 276.095 26.8995C276.082 27.5881 275.785 28.1184 275.221 28.5041C274.656 28.8897 274.009 29.1445 273.272 29.2754C272.542 29.4062 271.867 29.4682 271.254 29.4682C270.641 29.4682 269.987 29.4062 269.264 29.2754C268.548 29.1445 267.914 28.8897 267.356 28.5041C266.805 28.1253 266.516 27.5881 266.502 26.8995C266.502 26.438 266.619 26.0799 266.853 25.8045C267.15 25.5083 267.508 25.3637 267.941 25.3637H268.086C268.417 25.3913 268.699 25.5221 268.926 25.7563C269.154 25.9973 269.271 26.2728 269.271 26.5896C269.271 26.7893 269.222 27.1198 269.119 27.5812C269.119 27.9256 269.36 28.1666 269.835 28.3112C270.311 28.4559 270.799 28.5247 271.295 28.5247L271.302 28.5316Z" fill="#009EA8"/>
<path d="M102.9 72.6762C102.9 72.6762 102.728 72.9793 102.342 73.5853C102.129 73.8194 101.915 74.0192 101.688 74.1913C101.461 74.3635 101.296 74.4806 101.178 74.5563C100.827 74.7285 100.387 74.8111 99.8631 74.8111C99.3397 74.8111 98.899 74.6941 98.5477 74.453C98.4513 74.4048 98.3067 74.2395 98.1208 73.9572C97.9348 73.6748 97.8384 73.3856 97.8384 73.0826C97.8384 72.7795 97.9555 72.4765 98.1896 72.1735C98.3893 71.8705 98.6993 71.719 99.1056 71.719C99.2364 71.719 99.443 71.7534 99.7116 71.8154C99.6909 71.8154 99.8011 71.9049 100.042 72.0909C100.283 72.2768 100.531 72.3663 100.772 72.3663C100.82 72.3663 100.889 72.3732 100.993 72.3939C101.096 72.4145 101.172 72.4214 101.234 72.4214C101.475 72.4214 101.688 72.3181 101.888 72.1115C102.019 71.9531 102.198 71.6914 102.425 71.3196C102.652 70.9477 102.776 70.7204 102.804 70.6447L95.917 60.2043C95.6966 59.9426 95.4969 59.7016 95.311 59.4812C95.125 59.2608 94.9597 59.0887 94.8082 58.9578C94.6567 58.827 94.4777 58.7237 94.2711 58.6479C94.0645 58.5722 93.8234 58.5377 93.5342 58.5377V57.7251H100.524V58.5377H99.9664C98.9885 58.5377 98.4926 58.7925 98.4926 59.2953C98.4926 59.4881 98.5615 59.7911 98.6992 60.2043L104.071 68.5166L108.12 60.2043C108.258 59.8531 108.327 59.5983 108.327 59.4468C108.327 59.0749 108.175 58.827 107.872 58.7099C107.569 58.5928 107.177 58.5377 106.709 58.5377H106.199V57.7251H112.025V58.5377H111.819C110.627 58.6755 109.78 59.2333 109.284 60.2043L102.9 72.6694V72.6762Z" fill="#009EA8"/>
<path d="M126.005 66.237H117.596V71.8084C117.596 72.4282 117.686 72.8759 117.872 73.1582C118.058 73.4406 118.313 73.6196 118.629 73.6885C118.946 73.7574 119.449 73.8125 120.124 73.8331V74.6458H112.521V73.8331C113.216 73.8056 113.719 73.7574 114.036 73.6885C114.353 73.6196 114.601 73.4406 114.786 73.1582C114.966 72.8759 115.062 72.4282 115.062 71.8015V60.5555C115.062 59.9357 114.966 59.488 114.78 59.2057C114.594 58.9233 114.339 58.7443 114.022 58.6754C113.705 58.6065 113.203 58.5514 112.528 58.5308V57.7181H120.131V58.5308C119.284 58.5308 118.629 58.6478 118.161 58.882C117.92 59.0128 117.768 59.2126 117.706 59.488C117.638 59.7635 117.61 60.1216 117.61 60.5555V65.1627H126.019V60.5555C126.019 59.977 125.929 59.5431 125.743 59.2539C125.557 58.9646 125.296 58.7787 124.958 58.6892C124.621 58.5996 124.132 58.5445 123.491 58.5239V57.7112H131.094V58.5239C130.206 58.5239 129.545 58.641 129.118 58.8751C128.877 59.0059 128.725 59.2057 128.663 59.4811C128.594 59.7566 128.567 60.1147 128.567 60.5486V71.7947C128.567 72.4351 128.663 72.8965 128.863 73.1789C129.063 73.4613 129.318 73.6334 129.621 73.6954C129.93 73.7574 130.419 73.7987 131.101 73.8194V74.632H123.498V73.8194C124.152 73.7987 124.648 73.7436 124.986 73.661C125.323 73.5714 125.578 73.3855 125.757 73.1031C125.936 72.8208 126.033 72.38 126.033 71.7947V66.2233L126.005 66.237Z" fill="#009EA8"/>
<path d="M145.309 62.1876L136.9 71.8084C136.9 72.4282 136.99 72.8759 137.175 73.1582C137.361 73.4406 137.616 73.6196 137.933 73.6885C138.25 73.7574 138.753 73.8125 139.427 73.8331V74.6458H131.824V73.8331C132.52 73.8056 133.023 73.7574 133.34 73.6885C133.656 73.6196 133.904 73.4406 134.09 73.1582C134.269 72.8759 134.366 72.4282 134.366 71.8015V60.5555C134.366 59.9357 134.269 59.488 134.083 59.2057C133.897 58.9233 133.643 58.7443 133.326 58.6754C133.009 58.6065 132.506 58.5514 131.831 58.5308V57.7181H139.434V58.5308C138.587 58.5308 137.933 58.6478 137.458 58.882C137.217 59.0128 137.065 59.2126 137.003 59.488C136.934 59.7635 136.907 60.1216 136.907 60.5555V70.2796L145.316 60.5555C145.316 59.977 145.226 59.5431 145.04 59.2539C144.854 58.9646 144.593 58.7787 144.255 58.6892C143.918 58.5996 143.429 58.5445 142.788 58.5239V57.7112H150.391V58.5239C149.503 58.5239 148.842 58.641 148.415 58.8751C148.174 59.0059 148.022 59.2057 147.96 59.4811C147.891 59.7566 147.864 60.1147 147.864 60.5486V71.7947C147.864 72.4351 147.96 72.8965 148.16 73.1789C148.36 73.4613 148.614 73.6334 148.924 73.6954C149.234 73.7574 149.723 73.7987 150.405 73.8194V74.632H142.802V73.8194C143.456 73.7987 143.952 73.7436 144.289 73.661C144.627 73.5714 144.882 73.3855 145.061 73.1031C145.24 72.8208 145.329 72.38 145.329 71.7947V62.1739L145.309 62.1876Z" fill="#009EA8"/>
<path d="M159.337 65.4797C160.281 65.521 161.169 65.7138 161.989 66.0582C162.808 66.4025 163.483 66.9121 163.993 67.587C164.502 68.2619 164.757 69.0815 164.757 70.0456C164.757 70.9547 164.53 71.7673 164.082 72.4698C163.635 73.1722 163.022 73.7163 162.257 74.0881C161.486 74.4669 160.653 74.6529 159.744 74.6529H151.128V73.8402C151.824 73.8127 152.326 73.7645 152.643 73.6956C152.96 73.6267 153.208 73.4477 153.394 73.1653C153.573 72.883 153.669 72.4353 153.669 71.8086V60.5626C153.669 59.9427 153.58 59.4882 153.394 59.2059C153.215 58.9235 152.96 58.7513 152.643 58.6756C152.326 58.6067 151.824 58.5516 151.128 58.531V57.7183H159.337C160.115 57.7183 160.852 57.8561 161.548 58.1384C162.243 58.4208 162.801 58.8409 163.221 59.4125C163.641 59.9772 163.855 60.6659 163.855 61.4716C163.855 62.7112 163.435 63.6409 162.602 64.2676C161.761 64.8943 160.68 65.2938 159.344 65.4728L159.337 65.4797ZM156.204 65.1767C157.299 65.1767 158.173 65.1147 158.834 64.9907C159.496 64.8668 160.033 64.5706 160.446 64.0955C160.859 63.6203 161.066 62.8834 161.066 61.8848C161.066 60.7898 160.852 59.9634 160.432 59.4125C160.012 58.8615 159.275 58.5861 158.228 58.5861H156.204V65.1698V65.1767ZM156.204 65.9824V71.8086C156.204 72.5662 156.41 73.0758 156.83 73.3375C157.25 73.6061 157.863 73.7369 158.683 73.7369C159.819 73.7369 160.639 73.365 161.135 72.6144C161.63 71.8706 161.878 70.8858 161.878 69.6737C161.878 68.5305 161.63 67.6835 161.128 67.1463C160.632 66.6091 160.005 66.2786 159.255 66.1546C158.504 66.0306 157.492 65.9687 156.204 65.9687V65.9824Z" fill="#009EA8"/>
<path d="M178.951 57.7252L179.405 61.8848H178.648C178.4 60.8518 178.014 60.0391 177.497 59.4606C176.974 58.8822 176.23 58.586 175.259 58.586H171.561V65.2249H173.179C174.674 65.2249 175.452 64.4467 175.514 62.8903H176.327V68.6131H175.514C175.404 67.6972 175.204 67.0499 174.929 66.6849C174.653 66.3199 174.068 66.1339 173.179 66.1339H171.561V71.5538C171.561 72.394 171.788 72.9725 172.25 73.2961C172.704 73.6198 173.372 73.7851 174.247 73.7851C175.528 73.7851 176.54 73.6611 177.298 73.4132C178.055 73.1653 178.689 72.5937 179.212 71.7053C179.681 70.7618 179.928 70.0043 179.97 69.4189H180.727L180.376 74.6391H166.492V73.8264C167.188 73.7989 167.691 73.7507 168.008 73.6818C168.324 73.6129 168.572 73.4339 168.758 73.1515C168.944 72.8692 169.027 72.4215 169.027 71.7948V60.5488C169.027 59.9289 168.937 59.4744 168.758 59.1921C168.579 58.9097 168.331 58.7375 168.008 58.6618C167.691 58.5929 167.181 58.5378 166.492 58.5172V57.7045H178.964L178.951 57.7252Z" fill="#009EA8"/>
<path d="M186.395 66.5953V71.8086C186.395 72.4284 186.485 72.8761 186.671 73.1584C186.857 73.4408 187.111 73.6198 187.428 73.6887C187.745 73.7576 188.248 73.8058 188.923 73.8333V74.646H181.32V73.8333C182.015 73.8058 182.518 73.7576 182.835 73.6887C183.151 73.6198 183.399 73.4408 183.585 73.1584C183.764 72.8761 183.861 72.4284 183.861 71.8017V60.5557C183.861 59.9359 183.764 59.4882 183.578 59.2059C183.392 58.9235 183.138 58.7444 182.821 58.6756C182.504 58.6067 182.001 58.5516 181.326 58.531V57.7183H187.256C188.73 57.7183 189.969 57.801 190.961 57.9594C191.96 58.1178 192.8 58.531 193.502 59.1921C194.198 59.8532 194.549 60.8656 194.549 62.2291C194.549 63.0142 194.363 63.7442 193.991 64.4122C193.619 65.0803 193.096 65.6037 192.421 65.9755C191.65 66.3819 190.451 66.5885 188.826 66.5885H186.395V66.5953ZM186.395 65.8378H188.317C189.432 65.8378 190.293 65.5072 190.899 64.8392C191.505 64.1712 191.808 63.2759 191.808 62.1396C191.808 61.2443 191.67 60.5212 191.388 59.9772C191.106 59.4331 190.686 59.0406 190.121 58.7995C189.556 58.5585 188.833 58.4414 187.952 58.4414C187.759 58.4414 187.49 58.4483 187.146 58.469C186.801 58.4828 186.547 58.4965 186.381 58.4965V65.8447L186.395 65.8378Z" fill="#009EA8"/>
<path d="M211.325 57.7801L211.58 63.8611H210.767C210.499 62.7523 210.113 61.7813 209.603 60.9411C209.094 60.1009 208.433 59.4398 207.613 58.9577C206.794 58.4757 205.823 58.2346 204.686 58.2346C203.371 58.2346 202.276 58.6134 201.415 59.3778C200.547 60.1354 199.914 61.1133 199.514 62.3047C199.115 63.4892 198.915 64.7219 198.915 65.9891C198.915 67.3596 199.136 68.6474 199.583 69.8526C200.031 71.0509 200.726 72.0219 201.67 72.7519C202.613 73.4819 203.791 73.8469 205.196 73.8469C206.463 73.8469 207.682 73.4543 208.846 72.6624C210.01 71.8704 210.843 70.8787 211.325 69.6873L212.234 70.3966C211.807 71.3608 211.187 72.201 210.388 72.9172C209.583 73.6334 208.674 74.1775 207.648 74.5493C206.621 74.9212 205.582 75.1141 204.535 75.1141C203.295 75.1141 202.152 74.9006 201.098 74.4667C200.045 74.0328 199.142 73.4268 198.385 72.6417C197.627 71.8566 197.042 70.9338 196.636 69.8595C196.229 68.792 196.023 67.635 196.023 66.4023C196.023 65.1696 196.229 64.0264 196.636 62.9245C197.042 61.8295 197.627 60.8585 198.392 60.0114C199.156 59.1712 200.065 58.5101 201.126 58.0349C202.186 57.5597 203.336 57.3256 204.583 57.3256C206.559 57.3256 208.384 57.8972 210.058 59.0473C210.209 58.7993 210.395 58.3792 210.616 57.787H211.325V57.7801Z" fill="#009EA8"/>
<path d="M226.318 62.1876L217.909 71.8084C217.909 72.4282 217.999 72.8759 218.185 73.1582C218.37 73.4406 218.625 73.6196 218.942 73.6885C219.259 73.7574 219.762 73.8125 220.436 73.8331V74.6458H212.833V73.8331C213.529 73.8056 214.032 73.7574 214.349 73.6885C214.665 73.6196 214.913 73.4406 215.099 73.1582C215.285 72.8759 215.375 72.4282 215.375 71.8015V60.5555C215.375 59.9357 215.278 59.488 215.092 59.2057C214.906 58.9233 214.652 58.7443 214.335 58.6754C214.018 58.6065 213.515 58.5514 212.84 58.5308V57.7181H220.443V58.5308C219.596 58.5308 218.942 58.6478 218.474 58.882C218.233 59.0128 218.081 59.2126 218.012 59.488C217.943 59.7635 217.916 60.1216 217.916 60.5555V70.2796L226.325 60.5555C226.325 59.977 226.235 59.5431 226.049 59.2539C225.863 58.9646 225.602 58.7787 225.264 58.6892C224.927 58.5996 224.438 58.5445 223.797 58.5239V57.7112H231.4V58.5239C230.512 58.5239 229.851 58.641 229.424 58.8751C229.183 59.0059 229.031 59.2057 228.962 59.4811C228.893 59.7566 228.866 60.1147 228.866 60.5486V71.7947C228.866 72.4351 228.962 72.8965 229.162 73.1789C229.362 73.4613 229.617 73.6334 229.92 73.6954C230.229 73.7574 230.718 73.7987 231.4 73.8194V74.632H223.797V73.8194C224.451 73.7987 224.947 73.7436 225.285 73.661C225.615 73.5714 225.877 73.3855 226.056 73.1031C226.235 72.8208 226.332 72.38 226.332 71.7947V62.1739L226.318 62.1876Z" fill="#009EA8"/>
<path d="M243.693 74.6529H236.145V73.8403C236.834 73.8196 237.337 73.7714 237.667 73.6888C237.991 73.6061 238.246 73.4271 238.418 73.1447C238.59 72.8624 238.68 72.4216 238.68 71.8087V58.5861H235.835C234.857 58.5861 234.127 58.8616 233.652 59.4125C233.177 59.9635 232.791 60.7692 232.495 61.8298H231.683L232.137 57.7322H247.694L248.149 61.8298H247.391C247.171 61.1342 246.937 60.5626 246.696 60.1012C246.455 59.6398 246.11 59.2748 245.677 58.9993C245.243 58.7239 244.685 58.5861 243.996 58.5861H241.166V71.8087C241.166 72.4216 241.262 72.8693 241.455 73.1585C241.648 73.4478 241.903 73.6199 242.219 73.6957C242.536 73.7645 243.032 73.8196 243.693 73.8403V74.6529Z" fill="#009EA8"/>
<path d="M261.02 57.7252L261.475 61.8848H260.717C260.469 60.8518 260.084 60.0391 259.567 59.4606C259.044 58.8822 258.3 58.586 257.329 58.586H253.631V65.2249H255.249C256.743 65.2249 257.522 64.4467 257.584 62.8903H258.396V68.6131H257.584C257.473 67.6972 257.274 67.0499 256.998 66.6849C256.723 66.3199 256.137 66.1339 255.249 66.1339H253.631V71.5538C253.631 72.394 253.858 72.9725 254.319 73.2961C254.774 73.6198 255.442 73.7851 256.317 73.7851C257.597 73.7851 258.61 73.6611 259.367 73.4132C260.125 73.1653 260.758 72.5937 261.282 71.7053C261.75 70.7618 261.998 70.0043 262.039 69.4189H262.797L262.446 74.6391H248.562V73.8264C249.258 73.7989 249.76 73.7507 250.077 73.6818C250.394 73.6129 250.642 73.4339 250.828 73.1515C251.014 72.8692 251.103 72.4215 251.103 71.7948V60.5488C251.103 59.9289 251.014 59.4744 250.828 59.1921C250.649 58.9097 250.394 58.7375 250.077 58.6618C249.76 58.5929 249.258 58.5378 248.562 58.5172V57.7045H261.034L261.02 57.7252Z" fill="#009EA8"/>
<path d="M274.952 74.6529H267.404V73.8403C268.093 73.8196 268.596 73.7714 268.926 73.6888C269.25 73.6061 269.505 73.4271 269.677 73.1447C269.849 72.8624 269.939 72.4216 269.939 71.8087V58.5861H267.094C266.116 58.5861 265.386 58.8616 264.911 59.4125C264.436 59.9635 264.05 60.7692 263.754 61.8298H262.942L263.396 57.7322H278.953L279.408 61.8298H278.65C278.43 61.1342 278.196 60.5626 277.955 60.1012C277.714 59.6398 277.369 59.2748 276.936 58.9993C276.502 58.7239 275.944 58.5861 275.255 58.5861H272.425V71.8087C272.425 72.4216 272.521 72.8693 272.714 73.1585C272.907 73.4478 273.162 73.6199 273.478 73.6957C273.795 73.7645 274.291 73.8196 274.952 73.8403V74.6529Z" fill="#009EA8"/>
<path d="M98.1759 87.7646H97.4322V82.751H94.6637V87.7646H93.9199V82.1519H98.1759V87.7646Z" fill="#009EA8"/>
<path d="M100.263 85.5677V87.7646H99.5188V82.1519H101.592C102.205 82.1519 102.687 82.3103 103.038 82.6202C103.389 82.9301 103.561 83.3501 103.561 83.8667C103.561 84.4107 103.389 84.8308 103.052 85.1269C102.714 85.4231 102.225 85.5677 101.585 85.5677H100.263ZM100.263 84.9617H101.592C101.984 84.9617 102.294 84.8652 102.501 84.6793C102.714 84.4934 102.818 84.2248 102.818 83.8667C102.818 83.5085 102.714 83.2606 102.501 83.0609C102.287 82.8612 101.998 82.7579 101.633 82.751H100.263V84.9548V84.9617Z" fill="#009EA8"/>
<path d="M108.045 82.1519H108.788V87.7646H108.045V83.4397L105.276 87.7646H104.532V82.1519H105.276V86.4767L108.045 82.1519Z" fill="#009EA8"/>
<path d="M116.377 87.7646H115.634V82.751H112.865V87.7646H112.121V82.1519H116.377V87.7646Z" fill="#009EA8"/>
<path d="M118.464 85.5677V87.7646H117.721V82.1519H119.794C120.407 82.1519 120.889 82.3103 121.24 82.6202C121.591 82.9301 121.763 83.3501 121.763 83.8667C121.763 84.4107 121.591 84.8308 121.254 85.1269C120.916 85.4231 120.427 85.5677 119.787 85.5677H118.464ZM118.464 84.9617H119.794C120.186 84.9617 120.496 84.8652 120.703 84.6793C120.916 84.4934 121.019 84.2248 121.019 83.8667C121.019 83.5085 120.916 83.2606 120.703 83.0609C120.489 82.8612 120.2 82.7579 119.835 82.751H118.464V84.9548V84.9617Z" fill="#009EA8"/>
<path d="M125.275 86.2977H122.92L122.39 87.7646H121.625L123.767 82.1519H124.414L126.563 87.7646H125.805L125.268 86.2977H125.275ZM123.147 85.6916H125.055L124.098 83.0678L123.147 85.6916Z" fill="#009EA8"/>
<path d="M127.327 87.7646V82.1519H129.166C129.772 82.1519 130.234 82.2758 130.544 82.5306C130.853 82.7854 131.005 83.1573 131.005 83.6463C131.005 83.908 130.929 84.1421 130.785 84.3418C130.633 84.5416 130.433 84.7 130.172 84.8101C130.475 84.8928 130.716 85.0581 130.888 85.2922C131.067 85.5333 131.15 85.8156 131.15 86.1462C131.15 86.6489 130.984 87.0483 130.661 87.3307C130.337 87.6199 129.875 87.7646 129.276 87.7646H127.327ZM128.071 84.5484H129.187C129.51 84.5484 129.772 84.4658 129.965 84.3074C130.158 84.1421 130.254 83.9218 130.254 83.6463C130.254 83.3364 130.165 83.1091 129.986 82.9714C129.807 82.8336 129.531 82.7579 129.166 82.7579H128.071V84.5484ZM128.071 85.1407V87.1585H129.297C129.641 87.1585 129.917 87.069 130.11 86.8899C130.309 86.7109 130.406 86.463 130.406 86.1531C130.406 85.4782 130.041 85.1407 129.304 85.1407H128.071Z" fill="#009EA8"/>
<path d="M135.792 82.1519H136.535V87.7646H135.792V83.4397L133.023 87.7646H132.279V82.1519H133.023V86.4767L135.792 82.1519Z" fill="#009EA8"/>
<path d="M141.645 82.7579H139.841V87.7714H139.104V82.7579H137.3V82.1519H141.645V82.7579Z" fill="#009EA8"/>
<path d="M145.653 85.1753H143.222V87.1656H146.053V87.7716H142.485V82.1589H146.011V82.765H143.222V84.5762H145.653V85.1822V85.1753Z" fill="#009EA8"/>
<path d="M151.218 82.152V87.7647H150.474V82.7512H148.463L148.36 84.9756C148.318 85.7194 148.243 86.2841 148.132 86.656C148.015 87.0347 147.85 87.3102 147.63 87.4824C147.409 87.6614 147.113 87.751 146.741 87.7578H146.5V87.1518H146.652C146.893 87.1243 147.072 87.0485 147.203 86.9108C147.334 86.773 147.43 86.5527 147.499 86.2565C147.568 85.9535 147.616 85.4921 147.643 84.8654L147.761 82.1451H151.218V82.152Z" fill="#009EA8"/>
<path d="M153.277 84.4452H154.675C155.26 84.4521 155.722 84.6036 156.045 84.8997C156.376 85.1958 156.541 85.5884 156.541 86.098C156.541 86.6076 156.376 87.007 156.045 87.3101C155.715 87.6131 155.26 87.7646 154.689 87.7784H152.54V82.1656H153.284V84.4589L153.277 84.4452ZM153.277 85.0512V87.1654H154.634C154.999 87.1654 155.288 87.069 155.494 86.8693C155.701 86.6696 155.804 86.4079 155.804 86.0842C155.804 85.7605 155.708 85.5195 155.508 85.3336C155.309 85.1476 155.033 85.0581 154.668 85.0512H153.284H153.277Z" fill="#009EA8"/>
<path d="M161.644 85.9879C161.575 86.5802 161.355 87.0416 160.983 87.3653C160.611 87.6889 160.122 87.8473 159.509 87.8473C158.848 87.8473 158.311 87.6063 157.911 87.1311C157.512 86.6559 157.312 86.0224 157.312 85.2235V84.6863C157.312 84.1629 157.402 83.7084 157.595 83.309C157.781 82.9164 158.042 82.6065 158.387 82.3999C158.731 82.1864 159.123 82.0831 159.571 82.0831C160.17 82.0831 160.645 82.2484 161.004 82.5859C161.362 82.9164 161.575 83.3778 161.63 83.9701H160.886C160.825 83.5225 160.68 83.1988 160.466 82.9922C160.253 82.7925 159.95 82.6892 159.564 82.6892C159.089 82.6892 158.717 82.8613 158.449 83.2126C158.18 83.5638 158.049 84.0596 158.049 84.707V85.251C158.049 85.864 158.173 86.346 158.428 86.7041C158.683 87.0623 159.041 87.2413 159.495 87.2413C159.909 87.2413 160.225 87.1449 160.446 86.9589C160.666 86.773 160.811 86.4493 160.886 85.9879H161.63H161.644Z" fill="#009EA8"/>
<path d="M166.424 82.7579H164.619V87.7714H163.882V82.7579H162.078V82.1519H166.424V82.7579Z" fill="#009EA8"/>
<path d="M167.257 87.7646V82.1519H169.096C169.702 82.1519 170.163 82.2758 170.473 82.5306C170.783 82.7854 170.934 83.1573 170.934 83.6463C170.934 83.908 170.859 84.1421 170.707 84.3418C170.556 84.5416 170.356 84.7 170.101 84.8101C170.404 84.8928 170.645 85.0581 170.817 85.2922C170.989 85.5333 171.079 85.8156 171.079 86.1462C171.079 86.6489 170.914 87.0483 170.59 87.3307C170.266 87.6199 169.805 87.7646 169.206 87.7646H167.257ZM168.001 84.5484H169.116C169.44 84.5484 169.702 84.4658 169.894 84.3074C170.087 84.1421 170.184 83.9218 170.184 83.6463C170.184 83.3364 170.094 83.1091 169.915 82.9714C169.736 82.8336 169.461 82.7579 169.096 82.7579H168.001V84.5484ZM168.001 85.1407V87.1585H169.226C169.571 87.1585 169.846 87.069 170.039 86.8899C170.239 86.7109 170.335 86.463 170.335 86.1531C170.335 85.4782 169.97 85.1407 169.233 85.1407H168.001Z" fill="#009EA8"/>
<path d="M175.349 85.1753H172.918V87.1656H175.748V87.7716H172.181V82.1589H175.707V82.765H172.918V84.5762H175.349V85.1822V85.1753Z" fill="#009EA8"/>
<path d="M179.364 85.5677V87.7646H178.62V82.1519H180.693C181.306 82.1519 181.788 82.3103 182.139 82.6202C182.49 82.9301 182.663 83.3501 182.663 83.8667C182.663 84.4107 182.49 84.8308 182.153 85.1269C181.809 85.4231 181.327 85.5677 180.686 85.5677H179.364ZM179.364 84.9617H180.693C181.092 84.9617 181.395 84.8652 181.602 84.6793C181.816 84.4934 181.919 84.2248 181.919 83.8667C181.919 83.5085 181.816 83.2606 181.602 83.0609C181.389 82.8612 181.099 82.7579 180.734 82.751H179.364V84.9548V84.9617Z" fill="#009EA8"/>
<path d="M187.924 85.1408C187.924 85.6917 187.834 86.1738 187.648 86.5801C187.463 86.9933 187.201 87.3032 186.863 87.5167C186.526 87.7302 186.127 87.8404 185.672 87.8404C185.217 87.8404 184.839 87.7302 184.494 87.5167C184.15 87.2963 183.888 86.9864 183.695 86.587C183.503 86.1876 183.406 85.7193 183.406 85.189V84.7827C183.406 84.2455 183.503 83.7634 183.689 83.3502C183.875 82.937 184.143 82.6202 184.487 82.3998C184.832 82.1795 185.224 82.0693 185.665 82.0693C186.106 82.0693 186.512 82.1795 186.857 82.393C187.201 82.6133 187.463 82.9232 187.648 83.3364C187.834 83.7496 187.924 84.2317 187.924 84.7758V85.1339V85.1408ZM187.187 84.7758C187.187 84.1078 187.056 83.5981 186.788 83.24C186.519 82.8819 186.147 82.7029 185.665 82.7029C185.183 82.7029 184.832 82.8819 184.563 83.24C184.295 83.5981 184.157 84.0871 184.15 84.7207V85.1339C184.15 85.7812 184.288 86.284 184.556 86.6559C184.825 87.0277 185.204 87.2068 185.679 87.2068C186.154 87.2068 186.526 87.0346 186.788 86.6834C187.049 86.3322 187.187 85.8363 187.194 85.1821V84.7689L187.187 84.7758Z" fill="#009EA8"/>
<path d="M193.165 85.9879C193.096 86.5802 192.876 87.0416 192.511 87.3653C192.139 87.6889 191.65 87.8473 191.037 87.8473C190.376 87.8473 189.839 87.6063 189.439 87.1311C189.04 86.6559 188.84 86.0224 188.84 85.2235V84.6863C188.84 84.1629 188.937 83.7084 189.122 83.309C189.308 82.9164 189.57 82.6065 189.914 82.3999C190.259 82.1864 190.651 82.0831 191.099 82.0831C191.698 82.0831 192.173 82.2484 192.531 82.5859C192.89 82.9164 193.103 83.3778 193.158 83.9701H192.414C192.352 83.5225 192.208 83.1988 191.994 82.9922C191.781 82.7925 191.478 82.6892 191.092 82.6892C190.617 82.6892 190.245 82.8613 189.976 83.2126C189.708 83.5638 189.57 84.0596 189.57 84.707V85.251C189.57 85.864 189.701 86.346 189.949 86.7041C190.204 87.0623 190.562 87.2413 191.016 87.2413C191.43 87.2413 191.746 87.1449 191.967 86.9589C192.187 86.773 192.332 86.4493 192.407 85.9879H193.151H193.165Z" fill="#009EA8"/>
<path d="M198.309 85.9879C198.24 86.5802 198.02 87.0416 197.655 87.3653C197.283 87.6889 196.794 87.8473 196.181 87.8473C195.52 87.8473 194.983 87.6063 194.584 87.1311C194.184 86.6559 193.984 86.0224 193.984 85.2235V84.6863C193.984 84.1629 194.081 83.7084 194.267 83.309C194.453 82.9164 194.714 82.6065 195.059 82.3999C195.403 82.1864 195.796 82.0831 196.243 82.0831C196.842 82.0831 197.318 82.2484 197.676 82.5859C198.034 82.9164 198.247 83.3778 198.302 83.9701H197.559C197.497 83.5225 197.352 83.1988 197.139 82.9922C196.925 82.7925 196.622 82.6892 196.236 82.6892C195.761 82.6892 195.389 82.8613 195.121 83.2126C194.852 83.5638 194.714 84.0596 194.714 84.707V85.251C194.714 85.864 194.845 86.346 195.093 86.7041C195.348 87.0623 195.706 87.2413 196.161 87.2413C196.574 87.2413 196.891 87.1449 197.111 86.9589C197.331 86.773 197.476 86.4493 197.552 85.9879H198.295H198.309Z" fill="#009EA8"/>
<path d="M202.861 82.1519H203.605V87.7646H202.861V83.4397L200.093 87.7646H199.349V82.1519H200.093V86.4767L202.861 82.1519Z" fill="#009EA8"/>
<path d="M208.488 82.1522H209.232V87.7649H208.488V83.44L205.719 87.7649H204.976V82.1522H205.719V86.4771L208.488 82.1522ZM208.281 80.7542C208.281 81.0641 208.178 81.3189 207.964 81.5048C207.751 81.6977 207.475 81.7872 207.131 81.7872C206.787 81.7872 206.504 81.6908 206.291 81.498C206.077 81.3051 205.974 81.0572 205.974 80.7473H206.56C206.56 80.9264 206.608 81.071 206.704 81.1674C206.801 81.2638 206.945 81.3189 207.131 81.3189C207.317 81.3189 207.448 81.2707 207.551 81.1674C207.655 81.0641 207.703 80.9264 207.703 80.7404H208.281V80.7542Z" fill="#009EA8"/>
<path d="M214.714 85.9879C214.645 86.5802 214.424 87.0416 214.059 87.3653C213.687 87.6889 213.198 87.8473 212.586 87.8473C211.924 87.8473 211.387 87.6063 210.988 87.1311C210.588 86.6559 210.389 86.0224 210.389 85.2235V84.6863C210.389 84.1629 210.485 83.7084 210.671 83.309C210.857 82.9164 211.119 82.6065 211.463 82.3999C211.807 82.1864 212.2 82.0831 212.648 82.0831C213.247 82.0831 213.722 82.2484 214.08 82.5859C214.438 82.9164 214.652 83.3778 214.707 83.9701H213.963C213.901 83.5225 213.756 83.1988 213.543 82.9922C213.329 82.7925 213.026 82.6892 212.641 82.6892C212.165 82.6892 211.794 82.8613 211.525 83.2126C211.256 83.5638 211.119 84.0596 211.119 84.707V85.251C211.119 85.864 211.25 86.346 211.497 86.7041C211.752 87.0623 212.11 87.2413 212.565 87.2413C212.978 87.2413 213.295 87.1449 213.515 86.9589C213.736 86.773 213.88 86.4493 213.956 85.9879H214.7H214.714Z" fill="#009EA8"/>
<path d="M217.179 85.244H216.497V87.7646H215.753V82.1519H216.497V84.6311H217.076L219.038 82.1519H219.961L217.819 84.8721L220.12 87.7646H219.211L217.179 85.244Z" fill="#009EA8"/>
<path d="M224.995 85.1408C224.995 85.6917 224.906 86.1738 224.72 86.5801C224.534 86.9933 224.272 87.3032 223.935 87.5167C223.597 87.7302 223.198 87.8404 222.744 87.8404C222.289 87.8404 221.91 87.7302 221.566 87.5167C221.222 87.2963 220.96 86.9864 220.767 86.587C220.574 86.1876 220.478 85.7193 220.478 85.189V84.7827C220.478 84.2455 220.574 83.7634 220.76 83.3502C220.946 82.937 221.215 82.6202 221.559 82.3998C221.903 82.1795 222.296 82.0693 222.737 82.0693C223.177 82.0693 223.584 82.1795 223.928 82.393C224.272 82.6133 224.534 82.9232 224.72 83.3364C224.906 83.7496 224.995 84.2317 224.995 84.7758V85.1339V85.1408ZM224.259 84.7758C224.259 84.1078 224.128 83.5981 223.859 83.24C223.591 82.8819 223.219 82.7029 222.737 82.7029C222.255 82.7029 221.903 82.8819 221.635 83.24C221.366 83.5981 221.228 84.0871 221.222 84.7207V85.1339C221.222 85.7812 221.359 86.284 221.628 86.6559C221.896 87.0277 222.275 87.2068 222.75 87.2068C223.226 87.2068 223.597 87.0346 223.859 86.6834C224.121 86.3322 224.259 85.8363 224.265 85.1821V84.7689L224.259 84.7758Z" fill="#009EA8"/>
<path d="M229.651 82.1522H230.395V87.7649H229.651V83.44L226.882 87.7649H226.139V82.1522H226.882V86.4771L229.651 82.1522ZM229.444 80.7542C229.444 81.0641 229.341 81.3189 229.128 81.5048C228.914 81.6977 228.639 81.7872 228.294 81.7872C227.95 81.7872 227.668 81.6908 227.454 81.498C227.241 81.3051 227.137 81.0572 227.137 80.7473H227.723C227.723 80.9264 227.771 81.071 227.867 81.1674C227.964 81.2638 228.108 81.3189 228.294 81.3189C228.48 81.3189 228.611 81.2707 228.714 81.1674C228.818 81.0641 228.866 80.9264 228.866 80.7404H229.444V80.7542Z" fill="#009EA8"/>
<path d="M236.469 82.7168H236.586C237.013 82.7168 237.399 82.8201 237.75 83.0129C238.101 83.2057 238.37 83.4812 238.562 83.8186C238.755 84.163 238.852 84.5486 238.852 84.9687C238.852 85.3888 238.755 85.7814 238.556 86.1326C238.363 86.4769 238.087 86.7524 237.743 86.9452C237.399 87.138 237.013 87.2413 236.593 87.2413H236.455V87.9989H235.739V87.2413H235.629C235.202 87.2413 234.809 87.1449 234.458 86.9452C234.107 86.7524 233.831 86.4769 233.638 86.1326C233.446 85.7882 233.349 85.4026 233.349 84.9687C233.349 84.5349 233.446 84.1492 233.638 83.8049C233.831 83.4605 234.107 83.1919 234.458 82.9922C234.809 82.7925 235.202 82.6961 235.629 82.6961H235.739V81.9041H236.455V82.6961L236.469 82.7168ZM235.642 83.2952C235.16 83.2952 234.775 83.4467 234.492 83.7429C234.21 84.039 234.072 84.4522 234.072 84.9756C234.072 85.499 234.21 85.9191 234.492 86.2083C234.775 86.5045 235.16 86.6491 235.649 86.6491H235.753V83.2884H235.642V83.2952ZM236.469 83.2952V86.656H236.579C237.068 86.656 237.454 86.5045 237.729 86.2014C238.005 85.8984 238.142 85.4852 238.142 84.9687C238.142 84.4522 238.005 84.0459 237.729 83.7429C237.454 83.4399 237.061 83.2884 236.565 83.2884H236.476L236.469 83.2952Z" fill="#009EA8"/>
<path d="M242.963 85.1753H240.532V87.1656H243.363V87.7716H239.795V82.1589H243.321V82.765H240.532V84.5762H242.963V85.1822V85.1753Z" fill="#009EA8"/>
<path d="M249.333 89.1419H248.597V87.7646H244.568V89.1419H243.824V87.1585H244.279C244.52 86.8831 244.712 86.5181 244.857 86.0635C245.002 85.6021 245.091 85.0994 245.126 84.5553L245.25 82.1519H248.61V87.1585H249.34V89.1419H249.333ZM245.126 87.1654H247.866V82.7579H245.966L245.883 84.4107C245.849 85.0581 245.766 85.609 245.628 86.0635C245.491 86.5181 245.325 86.8831 245.126 87.1654Z" fill="#009EA8"/>
<path d="M253.396 85.1753H250.965V87.1656H253.796V87.7716H250.229V82.1589H253.755V82.765H250.965V84.5762H253.396V85.1822V85.1753Z" fill="#009EA8"/>
<path d="M255.449 85.5677V87.7646H254.705V82.1519H256.778C257.391 82.1519 257.873 82.3103 258.224 82.6202C258.575 82.9301 258.748 83.3501 258.748 83.8667C258.748 84.4107 258.575 84.8308 258.238 85.1269C257.894 85.4231 257.412 85.5677 256.771 85.5677H255.449ZM255.449 84.9617H256.778C257.177 84.9617 257.48 84.8652 257.687 84.6793C257.901 84.4934 258.004 84.2248 258.004 83.8667C258.004 83.5085 257.901 83.2606 257.687 83.0609C257.474 82.8612 257.184 82.7579 256.819 82.751H255.449V84.9548V84.9617Z" fill="#009EA8"/>
<path d="M262.26 86.2977H259.904L259.374 87.7646H258.61L260.751 82.1519H261.399L263.547 87.7646H262.79L262.253 86.2977H262.26ZM260.132 85.6916H262.039L261.082 83.0678L260.132 85.6916Z" fill="#009EA8"/>
<path d="M264.34 82.1519H265.083V87.1585H267.852V82.1519H268.596V87.1448H269.188L269.119 89.1213H268.451V87.7646H264.346V82.1519H264.34Z" fill="#009EA8"/>
<path d="M273.63 82.1519H274.374V87.7646H273.63V83.4397L270.861 87.7646H270.118V82.1519H270.861V86.4767L273.63 82.1519Z" fill="#009EA8"/>
<path d="M279.256 82.1519H280V87.7646H279.256V83.4397L276.488 87.7646H275.744V82.1519H276.488V86.4767L279.256 82.1519Z" fill="#009EA8"/>
<path d="M0 87.4106C21.8481 84.3471 43.8478 75.0812 59.877 57.3891C58.1673 63.6949 48.8599 79.7555 39.856 87.4106H0Z" fill="#009EA8"/>
</svg>
