<svg width="181" height="203" viewBox="0 0 181 203" fill="none" xmlns="http://www.w3.org/2000/svg">
<path d="M159.475 106.396H146.035C145.867 109.903 145.435 113.393 144.74 116.835H160.012C160.012 116.559 160.012 116.284 160.012 115.995C160.01 112.774 159.826 109.555 159.461 106.355" fill="#E73B2B"/>
<path d="M149.834 30.7093C140.376 20.9913 129.067 13.267 116.573 7.99251C104.08 2.71805 90.657 0.000389406 77.0961 0C72.628 0.0103512 68.1654 0.318587 63.7383 0.922656V24.0441C70.8109 22.2011 78.0912 21.2754 85.4 21.2899V35.0609C94.9877 36.2448 104.205 39.4912 112.419 44.5767C112.844 44.0248 113.304 43.5005 113.796 43.0068C117.017 40.1935 121.186 38.7067 125.461 38.8462C129.736 38.9858 133.799 40.7413 136.83 43.7587C139.861 46.776 141.636 50.8308 141.795 55.1049C141.954 59.3791 140.487 63.5546 137.688 66.7892C137.195 67.2817 136.671 67.7417 136.119 68.1663C142.698 78.7728 146.18 91.0077 146.171 103.489C146.171 104.467 146.171 105.431 146.089 106.408H159.474C159.838 109.609 160.022 112.827 160.025 116.048C160.025 116.337 160.025 116.613 160.025 116.902H179.621C180.219 112.469 180.527 108.003 180.544 103.53C180.558 89.9549 177.847 76.515 172.572 64.0065C167.297 51.4979 159.565 40.1753 149.834 30.7093Z" fill="#FCC000"/>
<path d="M0.40625 125.439V116.874H4.20704C4.57789 116.871 4.94774 116.913 5.30872 116.998C5.6287 117.066 5.92675 117.213 6.17629 117.424C6.38913 117.601 6.56669 117.816 6.69959 118.058C6.84462 118.353 6.91552 118.679 6.90615 119.008C6.92694 119.373 6.85592 119.738 6.69959 120.069C6.52975 120.395 6.26597 120.664 5.94218 120.84C6.19223 120.897 6.42415 121.015 6.61696 121.184C6.79573 121.323 6.94544 121.497 7.05763 121.694C7.16398 121.888 7.24277 122.097 7.29174 122.313C7.31909 122.547 7.31909 122.782 7.29174 123.016C7.2792 123.389 7.17767 123.753 6.99561 124.079C6.81356 124.405 6.55625 124.682 6.24514 124.888C5.88451 125.13 5.47568 125.289 5.04707 125.357C4.61877 125.423 4.18595 125.455 3.7526 125.453L0.40625 125.439ZM3.71128 120.344H4.24835C4.422 120.318 4.58979 120.262 4.74411 120.179C4.87802 120.078 4.9904 119.952 5.07461 119.807C5.15741 119.659 5.20456 119.494 5.21232 119.325C5.22787 119.163 5.19428 119 5.11592 118.857C5.05455 118.743 4.96427 118.648 4.85428 118.581C4.71654 118.496 4.56099 118.444 4.39983 118.43H2.16894V120.344H3.71128ZM2.16894 123.938H3.76637H4.51C4.78403 123.905 5.04003 123.784 5.23986 123.594C5.36041 123.507 5.45937 123.394 5.52905 123.263C5.60539 123.11 5.6432 122.939 5.63922 122.768C5.6443 122.598 5.60133 122.431 5.51528 122.286C5.43943 122.166 5.33541 122.067 5.21232 121.996C5.07051 121.909 4.91 121.858 4.74411 121.845H4.20704H2.16894V123.938Z" fill="black"/>
<path d="M10.9564 121.185C10.9597 121.543 11.006 121.899 11.0941 122.246C11.1827 122.567 11.3272 122.87 11.521 123.141C11.7214 123.393 11.9694 123.604 12.2509 123.761C12.5802 123.923 12.944 124.003 13.3112 123.995C13.7632 124.013 14.2101 123.893 14.5919 123.65C14.7538 123.539 14.892 123.396 14.9983 123.231C15.1047 123.065 15.1772 122.88 15.2116 122.686H16.9054C16.876 123.127 16.749 123.555 16.5336 123.94C16.3234 124.292 16.0476 124.6 15.7211 124.848C15.3762 125.087 14.9949 125.269 14.5919 125.386C14.1667 125.508 13.7261 125.568 13.2837 125.565C12.6766 125.575 12.0733 125.467 11.5072 125.248C11.0166 125.039 10.5755 124.73 10.2127 124.339C9.86048 123.938 9.59342 123.469 9.4278 122.962C9.06052 121.83 9.06052 120.61 9.4278 119.478C9.59754 118.966 9.87454 118.497 10.2403 118.101C10.5864 117.658 11.0292 117.3 11.5348 117.054C12.0981 116.824 12.7027 116.711 13.3112 116.724C13.7756 116.716 14.2389 116.771 14.6883 116.889C15.0832 116.998 15.456 117.175 15.79 117.412C16.1153 117.654 16.3833 117.964 16.5749 118.321C16.802 118.747 16.9336 119.217 16.9605 119.698H15.2116C15.1311 119.304 14.9049 118.955 14.5781 118.72C14.2079 118.461 13.7628 118.331 13.3112 118.349C12.944 118.34 12.5802 118.42 12.2509 118.583C11.9635 118.731 11.7139 118.943 11.521 119.202C11.3242 119.477 11.1795 119.785 11.0941 120.111C11.006 120.453 10.9598 120.805 10.9564 121.158" fill="black"/>
<path d="M25.2355 116.875V118.431H20.8701V120.427H24.6847V121.997H20.8701V123.898H25.2355V125.44H19.1074V116.875H25.2355Z" fill="black"/>
<path d="M29.4493 116.875L32.0245 120.896L34.5446 116.875H36.4174V125.44H34.6685V119.519L32.3825 123.223H31.5976L29.2841 119.519V125.44H27.5352V116.875H29.4493Z" fill="black"/>
<path d="M40.8388 122.397L45.0251 116.875H46.4435V125.44H44.6809V119.959L40.5083 125.44H39.0898V116.875H40.8388V122.397Z" fill="black"/>
<path d="M52.3948 116.874C52.8589 116.871 53.3216 116.926 53.7719 117.039C54.1628 117.129 54.5293 117.302 54.846 117.548C55.1456 117.799 55.3775 118.121 55.5208 118.485C55.6893 118.924 55.7644 119.393 55.7411 119.862C55.7495 120.302 55.665 120.738 55.4933 121.143C55.3387 121.504 55.1086 121.828 54.8185 122.093C54.514 122.349 54.1635 122.546 53.7856 122.671C53.3664 122.801 52.93 122.866 52.4912 122.864H50.8387V125.398H49.1035V116.874H52.3948ZM52.3948 121.363C52.6042 121.364 52.8128 121.337 53.0145 121.28C53.2019 121.226 53.3756 121.132 53.524 121.005C53.6712 120.887 53.789 120.736 53.8683 120.564C53.965 120.367 54.0167 120.151 54.0198 119.931C54.0488 119.717 54.0236 119.498 53.9467 119.296C53.8697 119.094 53.7433 118.915 53.5791 118.774C53.2298 118.528 52.8077 118.407 52.381 118.43H50.8662V121.363H52.3948Z" fill="black"/>
<path d="M59.6513 120.427H63.273V116.875H65.0219V125.44H63.273V121.997H59.6513V125.44H57.9023V116.875H59.6513V120.427Z" fill="black"/>
<path d="M67.6934 125.44V116.875H69.4423V119.959H71.0948C71.5983 119.95 72.1 120.02 72.5821 120.166C72.9813 120.285 73.3391 120.514 73.6149 120.827C73.798 121.057 73.9379 121.318 74.028 121.598C74.1336 121.932 74.1847 122.281 74.1795 122.631C74.1818 123.11 74.0684 123.582 73.849 124.008C73.65 124.374 73.3548 124.679 72.9952 124.889C72.668 125.081 72.3087 125.212 71.9348 125.275C71.512 125.349 71.0834 125.386 70.6541 125.385L67.6934 125.44ZM69.4423 123.939H70.6128H71.2876C71.4945 123.917 71.6954 123.856 71.8797 123.76C72.0486 123.67 72.191 123.537 72.2929 123.374C72.4123 123.175 72.4698 122.945 72.4581 122.713C72.4683 122.511 72.4205 122.311 72.3204 122.135C72.2337 121.991 72.1101 121.872 71.9624 121.791C71.7983 121.71 71.6211 121.658 71.4391 121.639C71.2373 121.625 71.0349 121.625 70.8331 121.639H69.456L69.4423 123.939ZM75.2536 116.93H77.0163V125.495H75.2536V116.93Z" fill="black"/>
<path d="M81.422 122.396L85.5533 116.888H86.9304V125.453H85.2779V119.945L81.1466 125.453H79.7695V116.874H81.5184L81.422 122.396ZM83.4602 116.309C82.8782 116.332 82.3057 116.157 81.8352 115.814C81.6067 115.632 81.4215 115.402 81.2929 115.14C81.1643 114.878 81.0955 114.591 81.0915 114.299H82.565C82.5991 114.509 82.7119 114.699 82.8807 114.83C83.0495 114.96 83.2616 115.021 83.4739 115.001C83.6858 115.009 83.8942 114.946 84.0661 114.822C84.2224 114.688 84.3251 114.502 84.3553 114.299H85.8563C85.8505 114.59 85.7808 114.877 85.6524 115.139C85.5239 115.4 85.3397 115.631 85.1127 115.814C84.6474 116.157 84.0792 116.332 83.5015 116.309" fill="black"/>
<path d="M3.86341 131.719V130.466H5.61232V131.719H6.053C6.51981 131.718 6.98406 131.788 7.43009 131.925C7.83748 132.051 8.21318 132.262 8.53177 132.545C8.84188 132.831 9.08217 133.184 9.23409 133.578C9.40511 134.016 9.48929 134.484 9.48197 134.955C9.50622 135.406 9.43811 135.857 9.28183 136.281C9.12555 136.705 8.88437 137.093 8.57309 137.42C7.87535 138.011 6.98002 138.316 6.06677 138.274H5.61232V139.651H3.86341V138.274H3.42274C2.95526 138.27 2.49105 138.195 2.04564 138.053C1.64246 137.928 1.27129 137.717 0.957733 137.434C0.649349 137.152 0.40918 136.803 0.255413 136.415C0.0873394 135.975 0.00325753 135.508 0.00753534 135.038C-0.0234786 134.586 0.0414736 134.133 0.198122 133.708C0.354771 133.283 0.599568 132.896 0.91642 132.573C1.61273 131.981 2.51035 131.68 3.42274 131.733L3.86341 131.719ZM3.86341 136.8V133.192H3.35388C3.11338 133.171 2.87121 133.206 2.64654 133.294C2.42187 133.383 2.22086 133.522 2.05941 133.702C1.76162 134.096 1.62388 134.588 1.67382 135.079C1.66352 135.541 1.83113 135.99 2.14204 136.332C2.30606 136.495 2.50218 136.622 2.71792 136.705C2.93366 136.788 3.16431 136.825 3.3952 136.814L3.86341 136.8ZM5.61232 133.192V136.8H6.12185C6.35894 136.825 6.59849 136.795 6.82262 136.714C7.04675 136.633 7.2497 136.502 7.41632 136.332C7.70696 135.935 7.84393 135.445 7.80191 134.955C7.80507 134.487 7.63314 134.035 7.31993 133.688C7.15573 133.526 6.95924 133.401 6.7433 133.32C6.52736 133.24 6.29683 133.205 6.06677 133.22L5.61232 133.192Z" fill="black"/>
<path d="M17.7863 130.852V132.422H13.4209V134.405H17.2217V135.975H13.4209V137.875H17.7863V139.418H11.6582V130.852H17.7863Z" fill="black"/>
<path d="M21.3101 135.107C21.3066 135.465 21.3529 135.822 21.4478 136.168C21.5288 136.489 21.6689 136.793 21.861 137.063C22.0672 137.34 22.3381 137.563 22.6501 137.712C22.9621 137.861 23.3058 137.931 23.6512 137.916C24.1032 137.935 24.5501 137.815 24.9319 137.572C25.0949 137.462 25.2338 137.319 25.3403 137.154C25.4468 136.988 25.5187 136.802 25.5516 136.608H27.273C27.2435 137.048 27.1165 137.476 26.9011 137.861C26.695 138.217 26.4185 138.526 26.0886 138.77C25.7483 139.017 25.3656 139.199 24.9594 139.307C24.5344 139.43 24.0937 139.491 23.6512 139.486C23.0482 139.502 22.4483 139.394 21.8885 139.17C21.3672 138.974 20.8966 138.663 20.5114 138.261C20.1604 137.859 19.8935 137.391 19.7265 136.884C19.3776 135.744 19.3776 134.526 19.7265 133.386C19.905 132.878 20.181 132.41 20.5389 132.009C20.9011 131.614 21.3421 131.3 21.8334 131.086C22.3967 130.856 23.0013 130.743 23.6099 130.756C24.0743 130.748 24.5376 130.803 24.987 130.921C25.3806 131.033 25.7529 131.21 26.0886 131.444C26.414 131.686 26.682 131.996 26.8736 132.353C27.1007 132.779 27.2323 133.249 27.2592 133.73H25.5516C25.4764 133.334 25.249 132.983 24.9181 132.752C24.5466 132.497 24.1014 132.371 23.6512 132.394C23.2851 132.381 22.9214 132.457 22.5908 132.615C22.3035 132.763 22.0538 132.975 21.861 133.234C21.669 133.51 21.529 133.818 21.4478 134.143C21.3538 134.484 21.3075 134.836 21.3101 135.19" fill="black"/>
<path d="M28.8281 132.422V130.852H35.9615V132.422H33.2762V139.418H31.5135V132.422H28.8281Z" fill="black"/>
<path d="M39.667 136.388L43.8396 130.852H45.258V139.418H43.5091V133.937L39.3227 139.418H37.9043V130.852H39.667V136.388Z" fill="black"/>
<path d="M47.9316 139.417V130.824H51.7324C52.1033 130.822 52.4731 130.863 52.8341 130.948C53.2967 131.042 53.711 131.297 54.0034 131.668C54.2959 132.039 54.4475 132.501 54.4315 132.973C54.4512 133.333 54.3802 133.693 54.225 134.019C54.0551 134.346 53.7914 134.615 53.4676 134.79C53.6994 134.855 53.9151 134.968 54.101 135.121C54.2767 135.264 54.4259 135.436 54.5417 135.63C54.6713 135.848 54.7644 136.085 54.8171 136.333C54.8455 136.566 54.8455 136.802 54.8171 137.035C54.8031 137.408 54.6991 137.772 54.5142 138.095C54.3298 138.414 54.0756 138.688 53.7705 138.894C53.4137 139.143 53.0032 139.303 52.5725 139.362C52.1442 139.428 51.7113 139.461 51.278 139.459L47.9316 139.417ZM51.2367 134.322C51.4154 134.336 51.595 134.336 51.7737 134.322C51.9502 134.309 52.1206 134.252 52.2695 134.157C52.399 134.074 52.5112 133.966 52.6 133.84C52.6844 133.688 52.7316 133.518 52.7377 133.344C52.7533 133.182 52.7197 133.019 52.6413 132.876C52.5763 132.766 52.4868 132.671 52.3797 132.601C52.2409 132.52 52.0853 132.473 51.9252 132.463H49.6806V134.363L51.2367 134.322ZM49.6943 137.875H51.2918H52.0354C52.2746 137.856 52.5036 137.77 52.6964 137.627C52.8099 137.533 52.9075 137.422 52.9856 137.297C53.062 137.138 53.0998 136.963 53.0958 136.787C53.1005 136.622 53.0575 136.46 52.9718 136.319C52.9041 136.193 52.798 136.092 52.6689 136.03C52.5311 135.932 52.369 135.875 52.2006 135.865H49.6806L49.6943 137.875Z" fill="black"/>
<path d="M58.6859 137.792L58.0662 139.417H56.1934L59.4709 130.824H61.4539L64.7314 139.39H62.8034L62.2113 137.765L58.6859 137.792ZM59.1954 136.236H61.7017L60.4624 132.711L59.1954 136.236Z" fill="black"/>
<path d="M69.3733 132.409C69.3733 132.946 69.3733 133.483 69.3733 134.034C69.3733 134.585 69.3733 135.108 69.3733 135.645C69.3733 135.852 69.3733 136.058 69.3733 136.292C69.3733 136.526 69.3733 136.747 69.3733 136.967C69.3486 137.2 69.3025 137.431 69.2356 137.656C69.1796 137.881 69.0963 138.098 68.9877 138.303C68.8761 138.508 68.7266 138.69 68.547 138.84C68.3782 138.987 68.1878 139.108 67.9824 139.198C67.7688 139.28 67.5473 139.34 67.3214 139.377C67.0831 139.398 66.8435 139.398 66.6053 139.377H66.3574V137.835H66.5089C66.6527 137.839 66.7951 137.806 66.922 137.738C67.0393 137.689 67.1466 137.619 67.2388 137.532C67.3242 137.44 67.3982 137.338 67.4591 137.229C67.5099 137.127 67.5514 137.021 67.583 136.912C67.6315 136.704 67.6638 136.492 67.6794 136.278C67.6794 136.031 67.6794 135.796 67.6794 135.535C67.6794 135.273 67.6794 135.039 67.6794 134.791C67.6794 134.543 67.6794 134.337 67.6794 134.144C67.6794 133.607 67.6794 133.07 67.6794 132.533C67.6794 131.996 67.6794 131.417 67.6794 130.798H73.7387V139.363H71.9898V132.409H69.3733Z" fill="black"/>
<path d="M76.3945 139.417V130.824H78.2261V133.909H80.154C80.653 133.9 81.1502 133.97 81.6275 134.115C82.0258 134.229 82.3808 134.459 82.6466 134.776C82.8322 135 82.9726 135.257 83.0597 135.534C83.1758 135.87 83.2318 136.225 83.2249 136.58C83.2226 137.059 83.1094 137.53 82.8944 137.958C82.6997 138.327 82.4034 138.633 82.0406 138.839C81.7162 139.036 81.3558 139.168 80.9803 139.225C80.5628 139.304 80.1383 139.341 79.7133 139.335L76.3945 139.417ZM78.2261 137.875H79.7409C79.961 137.889 80.1818 137.889 80.4019 137.875C80.602 137.85 80.797 137.794 80.9803 137.71C81.1568 137.619 81.3045 137.48 81.4072 137.31C81.512 137.106 81.564 136.879 81.5586 136.649C81.5688 136.447 81.5211 136.247 81.4209 136.071C81.3246 135.933 81.1972 135.82 81.0491 135.74C80.8867 135.653 80.7091 135.597 80.5258 135.575H79.9337H78.2261V137.875Z" fill="black"/>
<path d="M2.33604 144.83L4.89744 148.864L7.4313 144.83H9.30415V153.409H7.55524V147.487L5.26926 151.192H4.47054L2.17079 147.487V153.409H0.421875V144.83H2.33604Z" fill="black"/>
<path d="M15.7617 144.719C16.3639 144.712 16.962 144.82 17.5244 145.035C18.044 145.228 18.5143 145.534 18.9014 145.93C19.2682 146.328 19.5494 146.797 19.7277 147.307C20.1108 148.447 20.1108 149.68 19.7277 150.819C19.5494 151.33 19.2682 151.799 18.9014 152.196C18.5159 152.601 18.0457 152.916 17.5244 153.119C16.9526 153.354 16.3381 153.466 15.7204 153.449C15.1119 153.461 14.5075 153.348 13.9439 153.119C13.4254 152.911 12.9562 152.597 12.5668 152.196C12.2 151.799 11.9188 151.33 11.7405 150.819C11.5443 150.262 11.4464 149.675 11.4513 149.084C11.4709 148.489 11.592 147.903 11.8094 147.349C11.9936 146.835 12.2846 146.365 12.6632 145.972C13.045 145.569 13.517 145.262 14.0403 145.077C14.5995 144.849 15.1991 144.736 15.803 144.746M13.3517 149.111C13.359 149.447 13.4099 149.78 13.5032 150.103C13.6001 150.422 13.7541 150.72 13.9577 150.984C14.1544 151.251 14.4148 151.464 14.7151 151.604C15.0465 151.776 15.416 151.861 15.7892 151.852C16.1365 151.872 16.4833 151.807 16.7999 151.663C17.1165 151.519 17.3935 151.3 17.607 151.026C17.8135 150.753 17.9676 150.445 18.0614 150.117C18.172 149.774 18.2278 149.416 18.2267 149.056C18.2256 148.698 18.1746 148.341 18.0752 147.996C17.9714 147.676 17.8181 147.374 17.6207 147.101C17.4178 146.837 17.1592 146.621 16.8633 146.467C16.5255 146.325 16.1626 146.252 15.7961 146.252C15.4296 146.252 15.0667 146.325 14.7288 146.467C14.4296 146.615 14.1664 146.827 13.9577 147.087C13.7577 147.358 13.6041 147.661 13.5032 147.982C13.4029 148.327 13.3519 148.684 13.3517 149.043" fill="black"/>
<path d="M24.5217 146.4C24.5217 146.923 24.5217 147.474 24.5217 148.011C24.5217 148.548 24.5217 149.099 24.5217 149.622C24.5217 149.829 24.5217 150.049 24.5217 150.27C24.5348 150.499 24.5348 150.729 24.5217 150.958C24.4937 151.185 24.4524 151.411 24.3978 151.633C24.3319 151.855 24.249 152.071 24.1499 152.28C24.037 152.484 23.8876 152.667 23.7092 152.817C23.5335 152.962 23.3389 153.083 23.1308 153.175C22.9193 153.264 22.6971 153.324 22.4698 153.354C22.2362 153.375 22.0012 153.375 21.7675 153.354H21.5059V151.812H21.6711C21.8088 151.815 21.9455 151.787 22.0705 151.729C22.1883 151.675 22.2956 151.601 22.3872 151.509C22.48 151.424 22.5549 151.321 22.6075 151.206C22.6629 151.106 22.7046 151 22.7315 150.889C22.7795 150.68 22.8163 150.469 22.8416 150.256C22.8561 150.008 22.8561 149.76 22.8416 149.512C22.8416 149.264 22.8416 149.016 22.8416 148.768C22.8416 148.521 22.8416 148.314 22.8416 148.121C22.8416 147.584 22.8416 147.047 22.8416 146.51C22.8416 145.973 22.8416 145.408 22.8416 144.775H28.9009V153.354H27.1382V146.345L24.5217 146.4Z" fill="black"/>
<path d="M35.3455 144.719C35.9523 144.711 36.5551 144.819 37.1219 145.035C37.6443 145.223 38.1159 145.529 38.499 145.93C38.8747 146.324 39.1612 146.794 39.339 147.308C39.7221 148.447 39.7221 149.68 39.339 150.819C39.1612 151.333 38.8747 151.803 38.499 152.196C38.1188 152.608 37.647 152.924 37.1219 153.119C36.555 153.354 35.945 153.466 35.3317 153.449C34.7188 153.461 34.1099 153.348 33.5415 153.119C33.0248 152.908 32.5563 152.594 32.1644 152.196C31.7972 151.801 31.52 151.332 31.3519 150.819C31.1556 150.262 31.0578 149.675 31.0627 149.084C31.0779 148.49 31.1943 147.903 31.407 147.349C31.5979 146.838 31.888 146.37 32.2608 145.972C32.6479 145.575 33.1182 145.269 33.6379 145.077C34.1974 144.85 34.7968 144.737 35.4005 144.746M32.9631 149.112C32.9642 149.47 33.0151 149.827 33.1146 150.172C33.2073 150.49 33.3565 150.788 33.5552 151.053C33.758 151.314 34.0169 151.526 34.3126 151.673C34.6494 151.844 35.023 151.929 35.4005 151.921C35.7612 151.941 36.121 151.869 36.4471 151.714C36.745 151.57 37.0046 151.358 37.2045 151.095C37.4144 150.822 37.573 150.515 37.6727 150.186C37.8747 149.493 37.8747 148.757 37.6727 148.065C37.5793 147.743 37.4302 147.44 37.2321 147.17C36.8801 146.766 36.4074 146.486 35.8841 146.372C35.3607 146.258 34.8145 146.316 34.3264 146.536C34.0312 146.684 33.7725 146.896 33.569 147.156C33.3587 147.421 33.2041 147.725 33.1146 148.051C33.0143 148.396 32.9633 148.753 32.9631 149.112Z" fill="black"/>
<path d="M49.6937 155.611H47.931V153.408H42.6843V155.611H40.9629V151.893H41.2796C41.4031 151.908 41.528 151.908 41.6514 151.893C41.7573 151.87 41.8564 151.823 41.9406 151.755C42.0049 151.687 42.0563 151.608 42.0921 151.521C42.1385 151.425 42.171 151.323 42.1885 151.218C42.218 151.119 42.241 151.017 42.2574 150.915C42.2635 150.819 42.2635 150.722 42.2574 150.626C42.2574 150.089 42.34 149.552 42.3675 148.987C42.3951 148.422 42.3675 147.885 42.3675 147.348C42.3675 146.55 42.3675 145.737 42.3675 144.911H48.5507V151.934H49.5835L49.6937 155.611ZM46.9395 151.893V146.384H44.1853L44.1027 149.139V149.786C44.1027 150.02 44.1027 150.268 44.1027 150.516C44.1027 150.764 44.1027 151.011 44.0063 151.246C43.973 151.453 43.9176 151.656 43.841 151.851L46.9395 151.893Z" fill="black"/>
<path d="M57.792 144.829V146.399H53.4404V148.396H57.255V149.952H53.4404V151.852H57.8058V153.395H51.6777V144.829H57.792ZM53.3302 142.075C53.6087 142.066 53.8798 142.165 54.0877 142.35C54.1847 142.442 54.2609 142.553 54.3108 142.677C54.3607 142.8 54.3832 142.933 54.3768 143.066C54.3828 143.203 54.3601 143.34 54.3103 143.468C54.2606 143.596 54.1847 143.713 54.0877 143.81C53.8784 143.992 53.607 144.085 53.3302 144.072C53.0577 144.085 52.7909 143.991 52.5866 143.81C52.4895 143.713 52.4137 143.596 52.3639 143.468C52.3141 143.34 52.2915 143.203 52.2974 143.066C52.291 142.933 52.3136 142.8 52.3635 142.677C52.4134 142.553 52.4895 142.442 52.5866 142.35C52.7895 142.166 53.0561 142.067 53.3302 142.075ZM56.2635 142.075C56.5376 142.067 56.8042 142.166 57.0071 142.35C57.1042 142.442 57.1803 142.553 57.2302 142.677C57.2801 142.8 57.3027 142.933 57.2963 143.066C57.3022 143.203 57.2796 143.34 57.2298 143.468C57.18 143.596 57.1042 143.713 57.0071 143.81C56.8028 143.991 56.536 144.085 56.2635 144.072C55.9822 144.087 55.7058 143.994 55.4923 143.81C55.3952 143.713 55.3194 143.596 55.2696 143.468C55.2198 143.34 55.1972 143.203 55.2031 143.066C55.1967 142.933 55.2192 142.8 55.2692 142.677C55.3191 142.553 55.3952 142.442 55.4923 142.35C55.7044 142.163 55.9806 142.064 56.2635 142.075Z" fill="black"/>
<path d="M66.0808 149.911V153.395H64.3319V149.911H63.3266L61.4675 153.395H59.4707L61.9632 148.933L59.4982 144.83H61.5088L63.4643 148.369H64.3319V144.83H66.0808V148.369H66.9483L68.9038 144.83H70.9006L68.4632 148.933L70.9419 153.395H68.9451L67.0723 149.911H66.0808Z" fill="black"/>
<path d="M74.6201 150.366L78.8065 144.83H80.2249V153.395H78.4622V147.914L74.2758 153.395H72.8574V144.83H74.6201V150.366Z" fill="black"/>
<path d="M63.7405 24.0435V35.8039C68.1364 34.9029 72.6111 34.4416 77.0984 34.4268C79.8611 34.4333 82.6207 34.6127 85.361 34.9639V21.248C78.0522 21.2334 70.7718 22.1591 63.6992 24.0022" fill="#328D2E"/>
<path d="M144.796 116.833C145.491 113.391 145.923 109.902 146.091 106.395H124.773C125.371 109.573 125.671 112.8 125.668 116.034C125.687 124.104 123.8 132.064 120.16 139.266C122.162 140.687 123.83 142.529 125.048 144.661C126.265 146.794 127.003 149.166 127.209 151.613C127.416 154.06 127.086 156.523 126.243 158.829C125.4 161.135 124.063 163.23 122.328 164.967C120.592 166.704 118.498 168.041 116.192 168.886C113.886 169.73 111.424 170.061 108.977 169.857C106.53 169.652 104.157 168.915 102.024 167.699C99.8903 166.483 98.048 164.816 96.6252 162.814C89.4231 166.454 81.4632 168.341 73.3936 168.323C70.1591 168.319 66.932 168.015 63.7539 167.414V202.185C66.9549 202.542 70.1728 202.726 73.3936 202.736C84.7748 202.74 96.043 200.479 106.542 196.087C117.042 191.694 126.562 185.257 134.55 177.15C150.708 161.213 159.897 139.527 160.109 116.833H144.796Z" fill="#EC609F"/>
<path d="M120.116 139.225C116.864 136.915 112.898 135.832 108.923 136.167C104.948 136.503 101.22 138.235 98.4005 141.056C95.5806 143.878 93.8509 147.607 93.5179 151.582C93.185 155.557 94.2703 159.522 96.5816 162.773C101.618 160.224 106.209 156.876 110.174 152.858C114.21 148.897 117.569 144.301 120.116 139.252" fill="#17A95F"/>
<path d="M110.355 169.893C113.94 169.896 117.433 168.758 120.329 166.644C123.224 164.529 125.371 161.548 126.458 158.132C127.546 154.715 127.518 151.042 126.378 147.642C125.238 144.243 123.046 141.295 120.119 139.225C117.571 144.282 114.212 148.887 110.176 152.858C106.213 156.886 101.623 160.244 96.584 162.801C98.1438 165.001 100.208 166.796 102.604 168.035C105 169.274 107.658 169.92 110.355 169.921" fill="#971D40"/>
<path d="M112.421 44.4668C109.936 47.7146 108.713 51.7542 108.982 55.8351C109.25 59.916 110.991 63.7609 113.88 66.6553C116.769 69.5497 120.611 71.2969 124.691 71.5723C128.772 71.8478 132.814 70.6327 136.066 68.1529C133.112 63.3785 129.578 58.9888 125.545 55.0842C121.626 51.0282 117.217 47.4756 112.421 44.5081" fill="#EC609F"/>
<path d="M137.69 42.8973C134.521 39.7295 130.224 37.95 125.743 37.95C121.263 37.95 116.966 39.7295 113.797 42.8973C113.309 43.3941 112.849 43.9183 112.42 44.4672C117.219 47.4475 121.627 51.0141 125.544 55.0846C129.577 58.9892 133.111 63.3789 136.065 68.1533C136.617 67.7287 137.142 67.2687 137.635 66.7762C140.802 63.6075 142.582 59.3104 142.582 54.8299C142.582 50.3493 140.802 46.0522 137.635 42.8835" fill="#E73B2B"/>
<path d="M85.4017 34.952C82.6614 34.6008 79.9018 34.4215 77.1391 34.415C72.6519 34.4298 68.1772 34.8911 63.7813 35.7921V24.0454C45.6038 28.8618 29.5249 39.5445 18.0407 54.4351C6.55654 69.3257 0.30953 87.5912 0.269531 106.396H34.697C34.685 98.739 36.4181 91.1802 39.7647 84.2934C37.7673 82.8692 36.1043 81.0268 34.8914 78.8945C33.6784 76.7621 32.9448 74.3911 32.7414 71.9464C32.5381 69.5017 32.8699 67.042 33.7139 64.7386C34.5579 62.4352 35.8937 60.3433 37.6283 58.6087C39.363 56.874 41.4548 55.5382 43.7582 54.6943C46.0616 53.8503 48.5213 53.5185 50.966 53.7218C53.4107 53.9252 55.7818 54.6588 57.9141 55.8717C60.0464 57.0846 61.8888 58.7477 63.3131 60.7451C70.1993 57.3955 77.7578 55.6578 85.4155 55.6636L85.4017 34.952Z" fill="#17A95F"/>
<path d="M39.75 84.2932C43.0015 86.6217 46.9739 87.7204 50.9598 87.3936C54.9456 87.0667 58.686 85.3356 61.5147 82.5085C64.3434 79.6815 66.0767 75.9421 66.4059 71.9564C66.7351 67.9708 65.6387 63.9977 63.3121 60.7449C53.0415 65.7327 44.7438 74.0255 39.75 84.2932Z" fill="#FCC000"/>
<path d="M49.5834 53.7068C46.0034 53.7012 42.5143 54.8338 39.62 56.9409C36.7258 59.048 34.5763 62.0205 33.4819 65.4292C32.3876 68.8379 32.4051 72.5061 33.532 75.9042C34.6588 79.3022 36.8367 82.2541 39.7509 84.3335C44.7412 74.068 53.0338 65.7754 63.2993 60.7851C61.7444 58.5958 59.6878 56.8107 57.3015 55.5792C54.9152 54.3477 52.2687 53.7057 49.5834 53.7068Z" fill="#328D2E"/>
</svg>
