<svg width="214" height="59" viewBox="0 0 214 59" fill="none" xmlns="http://www.w3.org/2000/svg">
<path d="M51.1826 0C53.4562 0.000236233 55.2988 1.76039 55.2988 3.93164V48.8779C55.2988 51.0492 53.4562 52.8093 51.1826 52.8096H4.11719C1.84337 52.8096 2.15884e-06 51.0494 0 48.8779V3.93164C6.90802e-05 1.76024 1.84341 0 4.11719 0H51.1826ZM28.7852 25.917L38.6904 43.7617L47.5107 39.2842L34.4502 15.6953L28.7852 25.917ZM16.4619 24.1328L8.0625 39.2549L16.8828 43.7324L33.4775 13.8691L31.5078 10.4062H24.084L16.4619 24.1328ZM8.07812 10.6562V20.2119H16.75L22.0488 10.6562H8.07812ZM38.8457 19.9619H47.5176V10.4062H33.5469L38.8457 19.9619Z" fill="#293037"/>
<path d="M77.9744 52.0047C76.806 52.0047 75.7455 51.7946 74.7931 51.3739C73.8406 50.9457 73.0844 50.3301 72.524 49.5276C71.9636 48.7167 71.6836 47.7381 71.6836 46.5913C71.6836 45.5821 71.8917 44.7638 72.3081 44.1369C72.7239 43.5024 73.2802 43.0054 73.9765 42.646C74.6728 42.2867 75.4413 42.019 76.2817 41.8432C77.1299 41.6597 77.9821 41.5144 78.8385 41.4073C79.9594 41.2697 80.8675 41.1665 81.5637 41.0977C82.2683 41.0212 82.7802 40.8951 83.1004 40.7192C83.4289 40.5434 83.5927 40.2375 83.5927 39.8017V39.71C83.5927 38.5784 83.2688 37.699 82.6205 37.0721C81.98 36.4451 81.0075 36.1316 79.7032 36.1316C78.3504 36.1316 77.29 36.4145 76.5219 36.9803C75.7533 37.5461 75.213 38.1502 74.901 38.7924L72.212 37.8749C72.6919 36.8045 73.3323 35.971 74.1325 35.3747C74.9408 34.7706 75.8215 34.3501 76.774 34.1131C77.7342 33.8684 78.6784 33.7461 79.6071 33.7461C80.1991 33.7461 80.8794 33.8149 81.6479 33.9525C82.4243 34.0825 83.1727 34.3539 83.8928 34.7668C84.6211 35.1797 85.2254 35.8028 85.7057 36.6362C86.1856 37.4697 86.4258 38.586 86.4258 39.9852V51.5919H83.5927V49.2065H83.4486C83.2564 49.5887 82.9366 49.9977 82.4883 50.4332C82.04 50.8693 81.4439 51.2402 80.6996 51.546C79.9552 51.8518 79.0467 52.0047 77.9744 52.0047ZM78.4067 49.5735C79.527 49.5735 80.4713 49.3629 81.2398 48.9426C82.0162 48.5219 82.6004 47.9793 82.9924 47.3139C83.3927 46.6485 83.5927 45.9491 83.5927 45.2151V42.7378C83.4728 42.8754 83.2084 43.0015 82.8003 43.1163C82.4 43.2233 81.9361 43.3188 81.4077 43.403C80.8876 43.4794 80.3793 43.5482 79.883 43.6094C79.3948 43.6629 78.9987 43.7088 78.6944 43.7472C77.9584 43.8389 77.2699 43.9879 76.6298 44.1941C75.9976 44.3929 75.4852 44.6952 75.0932 45.1002C74.7089 45.4978 74.5168 46.0408 74.5168 46.7289C74.5168 47.6695 74.8809 48.3803 75.6092 48.8622C76.3458 49.3362 77.2781 49.5735 78.4067 49.5735Z" fill="#293037"/>
<path d="M99.0898 51.9588C97.3609 51.9588 95.8723 51.5687 94.6238 50.7889C93.3754 50.009 92.4151 48.9347 91.7427 47.566C91.0702 46.1977 90.7344 44.6341 90.7344 42.8754C90.7344 41.0862 91.0784 39.5073 91.7664 38.1387C92.4632 36.7624 93.4312 35.6882 94.6719 34.9159C95.9203 34.136 97.377 33.7461 99.0417 33.7461C100.338 33.7461 101.507 33.9755 102.547 34.4342C103.588 34.893 104.44 35.5353 105.104 36.361C105.768 37.1868 106.181 38.1502 106.341 39.2512H103.508C103.292 38.4483 102.811 37.7373 102.067 37.1179C101.331 36.491 100.338 36.1775 99.0898 36.1775C97.9854 36.1775 97.0169 36.4528 96.1848 37.0033C95.3604 37.5461 94.7158 38.3146 94.2519 39.3085C93.7954 40.2949 93.5675 41.4532 93.5675 42.7837C93.5675 44.1448 93.7917 45.3296 94.2396 46.3392C94.6961 47.3484 95.3361 48.1322 96.1605 48.6901C96.9931 49.2484 97.9694 49.5276 99.0898 49.5276C99.8263 49.5276 100.494 49.4053 101.095 49.1606C101.695 48.9155 102.203 48.5638 102.619 48.1051C103.035 47.6464 103.331 47.0959 103.508 46.4537H106.341C106.181 47.4935 105.784 48.4301 105.152 49.2637C104.528 50.0894 103.7 50.7469 102.667 51.2362C101.643 51.7181 100.45 51.9588 99.0898 51.9588Z" fill="#293037"/>
<path d="M115.904 52.0047C114.736 52.0047 113.675 51.7946 112.723 51.3739C111.77 50.9457 111.014 50.3301 110.454 49.5276C109.894 48.7167 109.613 47.7381 109.613 46.5913C109.613 45.5821 109.821 44.7638 110.238 44.1369C110.654 43.5024 111.21 43.0054 111.907 42.646C112.603 42.2867 113.371 42.019 114.211 41.8432C115.06 41.6597 115.912 41.5144 116.769 41.4073C117.889 41.2697 118.798 41.1665 119.494 41.0977C120.198 41.0212 120.71 40.8951 121.031 40.7192C121.359 40.5434 121.523 40.2375 121.523 39.8017V39.71C121.523 38.5784 121.198 37.699 120.55 37.0721C119.91 36.4451 118.938 36.1316 117.633 36.1316C116.281 36.1316 115.22 36.4145 114.452 36.9803C113.683 37.5461 113.143 38.1502 112.831 38.7924L110.142 37.8749C110.622 36.8045 111.262 35.971 112.063 35.3747C112.871 34.7706 113.751 34.3501 114.704 34.1131C115.664 33.8684 116.609 33.7461 117.537 33.7461C118.129 33.7461 118.81 33.8149 119.578 33.9525C120.354 34.0825 121.102 34.3539 121.823 34.7668C122.551 35.1797 123.156 35.8028 123.635 36.6362C124.116 37.4697 124.356 38.586 124.356 39.9852V51.5919H121.523V49.2065H121.379C121.187 49.5887 120.866 49.9977 120.418 50.4332C119.97 50.8693 119.374 51.2402 118.629 51.546C117.885 51.8518 116.977 52.0047 115.904 52.0047ZM116.336 49.5735C117.457 49.5735 118.401 49.3629 119.17 48.9426C119.946 48.5219 120.53 47.9793 120.923 47.3139C121.322 46.6485 121.523 45.9491 121.523 45.2151V42.7378C121.402 42.8754 121.139 43.0015 120.73 43.1163C120.33 43.2233 119.866 43.3188 119.338 43.403C118.817 43.4794 118.309 43.5482 117.813 43.6094C117.325 43.6629 116.929 43.7088 116.625 43.7472C115.888 43.8389 115.2 43.9879 114.56 44.1941C113.927 44.3929 113.415 44.6952 113.023 45.1002C112.639 45.4978 112.447 46.0408 112.447 46.7289C112.447 47.6695 112.811 48.3803 113.539 48.8622C114.275 49.3362 115.208 49.5735 116.336 49.5735Z" fill="#293037"/>
<path d="M136.492 51.9415C134.955 51.9415 133.598 51.5705 132.422 50.8292C131.245 50.0795 130.325 49.0244 129.66 47.6635C128.996 46.2948 128.664 44.6779 128.664 42.8121C128.664 40.9618 128.996 39.3561 129.66 37.9952C130.325 36.6341 131.249 35.5828 132.434 34.8412C133.618 34.0995 134.987 33.7287 136.54 33.7287C137.74 33.7287 138.688 33.9198 139.385 34.3022C140.089 34.6768 140.625 35.105 140.994 35.5867C141.37 36.0607 141.662 36.4507 141.87 36.7565H142.11V28.0859H144.943V51.5745H142.206V48.8675H141.87C141.662 49.1891 141.365 49.5941 140.981 50.0834C140.597 50.5653 140.049 50.9974 139.337 51.3796C138.624 51.754 137.676 51.9415 136.492 51.9415ZM136.876 49.5102C138.012 49.5102 138.972 49.2271 139.757 48.6613C140.541 48.0877 141.138 47.2965 141.546 46.2873C141.954 45.2703 142.158 44.0968 142.158 42.7663C142.158 41.4511 141.958 40.3004 141.558 39.3141C141.157 38.3201 140.565 37.5478 139.781 36.9974C138.997 36.4392 138.028 36.1601 136.876 36.1601C135.675 36.1601 134.675 36.4545 133.874 37.0432C133.082 37.6243 132.486 38.4157 132.086 39.4173C131.693 40.4113 131.497 41.5276 131.497 42.7663C131.497 44.0203 131.698 45.1593 132.097 46.1842C132.506 47.2008 133.106 48.0113 133.899 48.6155C134.699 49.2118 135.691 49.5102 136.876 49.5102Z" fill="#293037"/>
<path d="M158.256 51.9588C156.479 51.9588 154.946 51.584 153.658 50.8347C152.377 50.0781 151.389 49.0226 150.692 47.6695C150.004 46.3086 149.66 44.7258 149.66 42.9213C149.66 41.1168 150.004 39.5264 150.692 38.1502C151.389 36.7663 152.357 35.6882 153.598 34.9159C154.846 34.136 156.303 33.7461 157.967 33.7461C158.928 33.7461 159.877 33.899 160.813 34.2048C161.749 34.5107 162.601 35.0077 163.37 35.6958C164.138 36.3763 164.751 37.2785 165.207 38.4025C165.663 39.5264 165.891 40.9104 165.891 42.5542V43.7013H151.677V41.3615H163.01C163.01 40.3675 162.802 39.4806 162.385 38.7007C161.977 37.9208 161.393 37.3053 160.633 36.8542C159.88 36.4031 158.992 36.1775 157.967 36.1775C156.839 36.1775 155.863 36.4451 155.038 36.9803C154.222 37.5079 153.594 38.196 153.153 39.0447C152.713 39.8935 152.493 40.8033 152.493 41.7744V43.3342C152.493 44.6647 152.733 45.7922 153.213 46.7176C153.702 47.635 154.378 48.3345 155.242 48.8163C156.107 49.2904 157.111 49.5276 158.256 49.5276C159 49.5276 159.672 49.428 160.273 49.2292C160.881 49.0225 161.405 48.7167 161.845 48.3117C162.285 47.8989 162.626 47.3864 162.866 46.7748L165.603 47.5088C165.315 48.3956 164.831 49.1759 164.15 49.8487C163.47 50.5136 162.63 51.0335 161.629 51.4084C160.629 51.7753 159.504 51.9588 158.256 51.9588Z" fill="#293037"/>
<path d="M170.203 51.5919V33.9755H172.94V36.728H173.18C173.565 35.7876 174.185 35.0574 175.041 34.5374C175.897 34.0099 176.926 33.7461 178.127 33.7461C179.343 33.7461 180.355 34.0099 181.164 34.5374C181.98 35.0574 182.616 35.7876 183.072 36.728H183.265C183.737 35.8181 184.445 35.0956 185.39 34.5604C186.334 34.0175 187.466 33.7461 188.787 33.7461C190.436 33.7461 191.784 34.2392 192.833 35.2256C193.881 36.2043 194.406 37.7296 194.406 39.8017V51.5919H191.572V39.8017C191.572 38.5019 191.2 37.5729 190.456 37.0148C189.711 36.4566 188.835 36.1775 187.827 36.1775C186.53 36.1775 185.525 36.5521 184.813 37.3015C184.101 38.0431 183.745 38.9836 183.745 40.1228V51.5919H180.864V39.5264C180.864 38.5248 180.523 37.7182 179.843 37.1065C179.163 36.4872 178.286 36.1775 177.214 36.1775C176.478 36.1775 175.789 36.3648 175.149 36.7395C174.517 37.1142 174.005 37.6341 173.612 38.2993C173.228 38.9568 173.036 39.7176 173.036 40.5816V51.5919H170.203Z" fill="#293037"/>
<path d="M200.746 58.1952C200.266 58.1952 199.837 58.1571 199.461 58.0802C199.085 58.0117 198.825 57.9426 198.681 57.874L199.401 55.4887C200.089 55.6569 200.698 55.718 201.226 55.6722C201.754 55.6263 202.223 55.4004 202.631 54.9954C203.047 54.5979 203.427 53.9517 203.771 53.057L204.299 51.6808L197.48 33.9727H200.554L205.644 48.0106H205.836L210.926 33.9727H214L206.172 54.1579C205.82 55.0679 205.384 55.8211 204.864 56.4175C204.344 57.0217 203.739 57.4686 203.051 57.7591C202.37 58.0497 201.602 58.1952 200.746 58.1952Z" fill="#293037"/>
<path d="M71.9531 23.4885V0H74.9304V11.6525H75.2186L86.2635 0H90.153L79.8286 10.5973L90.153 23.4885H86.5517L78.0037 12.57L74.9304 15.8731V23.4885H71.9531Z" fill="#293037"/>
<path d="M99.0486 23.9071C97.8797 23.9071 96.8193 23.6968 95.8668 23.2763C94.9148 22.8481 94.1582 22.2326 93.5982 21.4298C93.0378 20.6193 92.7578 19.6406 92.7578 18.4937C92.7578 17.4845 92.966 16.6663 93.3818 16.0393C93.7981 15.4047 94.3544 14.9078 95.0507 14.5484C95.747 14.189 96.5151 13.9214 97.3555 13.7456C98.2041 13.562 99.0564 13.4168 99.9128 13.3097C101.033 13.1721 101.942 13.0689 102.638 13.0001C103.342 12.9236 103.854 12.7974 104.175 12.6216C104.503 12.4458 104.667 12.1399 104.667 11.7041V11.6123C104.667 10.4807 104.343 9.60143 103.694 8.97447C103.054 8.3475 102.082 8.03399 100.777 8.03399C99.4246 8.03399 98.3642 8.31691 97.5956 8.88272C96.8275 9.44853 96.2873 10.0526 95.9753 10.6948L93.2857 9.77728C93.7661 8.70683 94.4066 7.87343 95.2067 7.27705C96.0151 6.67301 96.8952 6.25247 97.8477 6.01546C98.8084 5.77081 99.7527 5.64844 100.681 5.64844C101.273 5.64844 101.954 5.71725 102.722 5.85491C103.498 5.98488 104.246 6.25632 104.967 6.66917C105.695 7.08207 106.3 7.70524 106.78 8.53863C107.26 9.37203 107.5 10.4883 107.5 11.8876V23.4942H104.667V21.1087H104.523C104.331 21.4909 104.01 21.9 103.563 22.3358C103.114 22.7716 102.518 23.1425 101.774 23.4483C101.029 23.7541 100.121 23.9071 99.0486 23.9071ZM99.4805 21.4756C100.601 21.4756 101.546 21.2654 102.314 20.8449C103.09 20.4243 103.674 19.8814 104.067 19.2163C104.467 18.5511 104.667 17.8514 104.667 17.1174V14.6401C104.547 14.7777 104.283 14.9039 103.875 15.0186C103.474 15.1256 103.01 15.2212 102.482 15.3053C101.962 15.3818 101.454 15.4506 100.957 15.5118C100.469 15.5653 100.073 15.6112 99.7687 15.6494C99.0326 15.7412 98.3441 15.8903 97.7036 16.0967C97.0714 16.2955 96.5594 16.5975 96.1669 17.0027C95.7831 17.4004 95.591 17.9432 95.591 18.6314C95.591 19.5718 95.9551 20.2829 96.6834 20.7646C97.4195 21.2386 98.3523 21.4756 99.4805 21.4756Z" fill="#293037"/>
<path d="M120.689 5.86904V8.1628H111.133V5.86904H120.689ZM113.918 1.64844H116.751V18.439C116.751 19.2036 116.867 19.7771 117.099 20.1594C117.339 20.534 117.644 20.7863 118.011 20.9163C118.388 21.0387 118.784 21.0998 119.2 21.0998C119.512 21.0998 119.769 21.0845 119.969 21.054C120.168 21.0157 120.329 20.9852 120.449 20.9622L121.025 23.3936C120.833 23.4625 120.565 23.5313 120.221 23.6001C119.877 23.6765 119.44 23.7148 118.912 23.7148C118.112 23.7148 117.328 23.5504 116.559 23.2216C115.799 22.8928 115.166 22.392 114.662 21.7192C114.166 21.0463 113.918 20.1976 113.918 19.1731V1.64844Z" fill="#293037"/>
<path d="M130.377 23.9071C129.208 23.9071 128.148 23.6968 127.195 23.2763C126.243 22.8481 125.487 22.2326 124.926 21.4298C124.366 20.6193 124.086 19.6406 124.086 18.4937C124.086 17.4845 124.294 16.6663 124.71 16.0393C125.126 15.4047 125.683 14.9078 126.379 14.5484C127.075 14.189 127.844 13.9214 128.684 13.7456C129.532 13.562 130.384 13.4168 131.241 13.3097C132.362 13.1721 133.27 13.0689 133.966 13.0001C134.671 12.9236 135.183 12.7974 135.503 12.6216C135.831 12.4458 135.995 12.1399 135.995 11.7041V11.6123C135.995 10.4807 135.671 9.60143 135.023 8.97447C134.382 8.3475 133.41 8.03399 132.106 8.03399C130.753 8.03399 129.692 8.31691 128.924 8.88272C128.156 9.44853 127.615 10.0526 127.303 10.6948L124.614 9.77728C125.094 8.70683 125.735 7.87343 126.535 7.27705C127.343 6.67301 128.224 6.25247 129.176 6.01546C130.137 5.77081 131.081 5.64844 132.009 5.64844C132.601 5.64844 133.282 5.71725 134.05 5.85491C134.827 5.98488 135.575 6.25632 136.295 6.66917C137.023 7.08207 137.628 7.70524 138.108 8.53863C138.588 9.37203 138.828 10.4883 138.828 11.8876V23.4942H135.995V21.1087H135.851C135.659 21.4909 135.339 21.9 134.891 22.3358C134.442 22.7716 133.846 23.1425 133.102 23.4483C132.358 23.7541 131.449 23.9071 130.377 23.9071ZM130.809 21.4756C131.929 21.4756 132.874 21.2654 133.642 20.8449C134.419 20.4243 135.003 19.8814 135.395 19.2163C135.795 18.5511 135.995 17.8514 135.995 17.1174V14.6401C135.875 14.7777 135.611 14.9039 135.203 15.0186C134.802 15.1256 134.338 15.2212 133.81 15.3053C133.29 15.3818 132.782 15.4506 132.285 15.5118C131.797 15.5653 131.401 15.6112 131.097 15.6494C130.361 15.7412 129.672 15.8903 129.032 16.0967C128.4 16.2955 127.888 16.5975 127.496 17.0027C127.111 17.4004 126.919 17.9432 126.919 18.6314C126.919 19.5718 127.283 20.2829 128.012 20.7646C128.748 21.2386 129.68 21.4756 130.809 21.4756Z" fill="#293037"/>
</svg>
